<?xml version="1.0" encoding="UTF-8" standalone="no"?>
<svg
   xmlns:dc="http://purl.org/dc/elements/1.1/"
   xmlns:cc="http://creativecommons.org/ns#"
   xmlns:rdf="http://www.w3.org/1999/02/22-rdf-syntax-ns#"
   xmlns:svg="http://www.w3.org/2000/svg"
   xmlns="http://www.w3.org/2000/svg"
   xmlns:sodipodi="http://sodipodi.sourceforge.net/DTD/sodipodi-0.dtd"
   xmlns:inkscape="http://www.inkscape.org/namespaces/inkscape"
   sodipodi:docname="3.3ZAPPER.svg"
   inkscape:version="1.0 (4035a4fb49, 2020-05-01)"
   id="svg52"
   version="1.1"
   viewBox="0 0 406.4 304.80001"
   height="12in"
   width="16in">
  <defs
     id="defs46" />
  <sodipodi:namedview
     inkscape:window-maximized="1"
     inkscape:window-y="-9"
     inkscape:window-x="-9"
     inkscape:window-height="1001"
     inkscape:window-width="1920"
     inkscape:snap-bbox-midpoints="true"
     inkscape:snap-bbox="true"
     units="in"
     inkscape:snap-center="true"
     inkscape:snap-global="false"
     showgrid="false"
     inkscape:document-rotation="0"
     inkscape:current-layer="layer1"
     inkscape:document-units="mm"
     inkscape:cy="1113.6614"
     inkscape:cx="483.03632"
     inkscape:zoom="0.25795559"
     inkscape:pageshadow="2"
     inkscape:pageopacity="0.0"
     borderopacity="1.0"
     bordercolor="#666666"
     pagecolor="#ffffff"
     id="base" />
  <metadata
     id="metadata49">
    <rdf:RDF>
      <cc:Work
         rdf:about="">
        <dc:format>image/svg+xml</dc:format>
        <dc:type
           rdf:resource="http://purl.org/dc/dcmitype/StillImage" />
        <dc:title />
      </cc:Work>
    </rdf:RDF>
  </metadata>
  <g
     id="layer1"
     inkscape:groupmode="layer"
     inkscape:label="Layer 1">
    <path
       d="m 8.8301608,296.2783 c -10.51036,-9.06558 17.4885092,-48.99732 21.9976892,-46.5368 20.37083,7.86005 34.283398,-13.83062 37.518148,-2.36091 9.35045,10.97081 35.075242,2.31118 55.002902,1.91702 4.29732,0.0242 4.0085,-1.18735 6.34152,-2.35234 1.99452,-0.94977 4.38128,-0.10205 5.33096,1.89299 1.066,7.36866 8.65586,12.92769 13.81144,18.76662 l 7.3518,14.87698 c 1.41844,0.11855 2.66805,0.98073 3.27989,2.26598 0.94943,1.99466 0.10114,4.38199 -1.89327,5.33139 -46.97846,16.06876 -96.074762,-19.22823 -114.85461,-0.39166 -11.96438,6.70968 -21.03278,8.48943 -30.347219,8.18536 -1.48161,-0.28038 -2.6485402,-0.82631 -3.5392502,-1.59463 z m 4.0239502,-3.34028 0.002,0.002 c 0.29628,0.24577 0.66555,0.38593 1.05021,0.40024 l 3.4e-4,-3.9e-4 c 0.54405,0.0204 1.06637,-0.21366 1.4138,-0.6328 0.616389,-0.74465 0.512029,-1.84833 -0.23295,-2.46434 -0.74445,-0.61623 -1.84771,-0.51117 -2.46393,0.23328 -0.61579,0.74393 -0.51233,1.84612 0.23095,2.46267 z m 14.307079,-7.50049 a 1.75,1.75 0 0 0 1.72305,0.30947 1.75,1.75 0 0 0 1.05192,-2.24025 1.75,1.75 0 0 0 -2.23993,-1.05232 1.75,1.75 0 0 0 -1.05192,2.24025 1.75,1.75 0 0 0 0.51688,0.74282 z m -5.3948,-15.16434 a 1.75,1.75 0 0 0 1.72338,0.3091 1.75,1.75 0 0 0 1.05232,-2.23994 1.75,1.75 0 0 0 -2.23994,-1.05231 1.75,1.75 0 0 0 -1.05234,2.23992 1.75,1.75 0 0 0 0.51658,0.74322 z m 7.37211,-11.63958 -6.9e-4,-0.004 c 0.002,0.002 0.002,0.002 0.003,0.004 0.2963,0.24576 0.66596,0.38626 1.05061,0.40057 l -3.4e-4,4e-4 c 0.54395,0.0202 1.06679,-0.21341 1.41341,-0.63312 0.61619,-0.74441 0.51222,-1.8474 -0.23216,-2.46364 -0.74465,-0.61646 -1.84869,-0.51238 -2.46434,0.23287 -0.6156,0.74375 -0.51237,1.84587 0.23057,2.46238 z m 24.13337,18.74151 a 1.75,1.75 0 0 0 1.72336,0.3091 1.75,1.75 0 0 0 1.05193,-2.24026 1.75,1.75 0 0 0 -2.24028,-1.05193 1.75,1.75 0 0 0 -1.05192,2.24027 1.75,1.75 0 0 0 0.51691,0.74282 z m 14.999668,1.94796 v 0 0 c 0.24771,0.22671 0.57225,0.37232 0.93384,0.39105 0.009,6.3e-4 0.0172,10e-4 0.0258,10e-4 0.81827,0.0286 1.50849,-0.60406 1.55053,-1.42175 0.0425,-0.82728 -0.59333,-1.53258 -1.4206,-1.57522 -0.82711,-0.0417 -1.53246,0.59357 -1.57523,1.42061 -0.0241,0.46498 0.16664,0.89127 0.48488,1.18327 z m 38.288132,2.9144 c 0.18197,0.16167 0.41771,0.25084 0.66007,0.25188 0.14544,1.1e-4 0.29354,-0.0299 0.43347,-0.0972 0.49863,-0.23746 0.71006,-0.83461 0.4729,-1.33318 -0.2372,-0.49884 -0.83438,-0.71119 -1.33288,-0.47404 -0.49389,0.23514 -0.70691,0.82399 -0.47878,1.32085 0.003,0.005 0.002,0.008 0.006,0.0127 0.0593,0.12456 0.14081,0.23105 0.23777,0.31729 z m -11.806832,-23.5293 3.5e-4,-4.7e-4 c 0.18204,0.16177 0.41755,0.25234 0.66017,0.25339 l 3.4e-4,-4.7e-4 c 0.14561,1.3e-4 0.29393,-0.0297 0.43387,-0.0968 0.49876,-0.2375 0.71039,-0.83499 0.47365,-1.33318 -0.2375,-0.49884 -0.83414,-0.71101 -1.33285,-0.4733 -0.49394,0.23509 -0.70698,0.82404 -0.47877,1.3208 0.002,1.7e-4 0.001,0.0102 0.005,0.0114 0.0593,0.12486 0.14163,0.23145 0.23854,0.31791 z m 27.216892,2.04363 v 0 c 0.16004,0.14589 0.3665,0.23806 0.58927,0.25662 l -9.5e-4,8.9e-4 c 0.54974,0.0459 1.0334,-0.36204 1.07931,-0.91183 0.046,-0.54967 -0.36276,-1.03269 -0.91254,-1.0785 -0.54974,-0.046 -1.03353,0.36284 -1.07921,0.91254 -0.0147,0.17329 0.0176,0.34656 0.0913,0.50412 0.0565,0.12161 0.13631,0.22831 0.23245,0.31549 z m 32.55513,27.20995 c 0.36416,0.3235 0.8361,0.50346 1.32138,0.5055 0.29083,7.2e-4 0.58639,-0.0614 0.86653,-0.19472 0.99724,-0.47477 1.42105,-1.66795 0.94633,-2.66529 -0.47456,-0.9975 -1.66828,-1.42131 -2.6657,-0.94665 -0.98971,0.47113 -1.41557,1.65086 -0.95536,2.64556 0.003,0.008 0.006,0.0109 0.01,0.0197 0.11861,0.24936 0.2825,0.46301 0.47698,0.6352 z m -24.44502,-35.91458 v 0 c 0.36411,0.32325 0.836,0.50386 1.32103,0.50594 l 9e-4,7e-5 c 0.29107,0.002 0.58687,-0.0605 0.86731,-0.19405 0.99721,-0.47484 1.42056,-1.6683 0.94593,-2.66565 -0.47484,-0.99718 -1.66807,-1.42103 -2.66531,-0.94629 -0.98971,0.47115 -1.41607,1.65051 -0.95576,2.64517 0.002,0.0103 0.007,0.0115 0.009,0.0208 0.11874,0.24912 0.28139,0.46286 0.47584,0.635 z"
       inkscape:transform-center-y="-11.903746"
       inkscape:transform-center-x="-1.3513293"
       style="fill:none;fill-opacity:1;stroke:#000000;stroke-width:0.3;stroke-linejoin:round;stroke-opacity:1"
       id="path1379-33-8" />
    <path
       sodipodi:nodetypes="cccccccccccccccccccccccccccccccccccccccccsssscccccccccccccsscscc"
       id="path1379-0-8"
       style="fill:none;fill-opacity:1;stroke:#000000;stroke-width:0.3;stroke-linejoin:round;stroke-opacity:1"
       d="m 155.0836,171.30966 c -0.0473,-13.31285 -3.04501,-25.55341 -8.10855,-36.10735 l -9.06301,0.91416 c -3.08919,1.48868 -5.83731,2.84274 -8.33644,4.09895 -0.14539,-26.13567 -0.28521,-52.537481 -0.35605,-78.673531 l 5.42809,0.0496 5.17282,-8.70177 -0.0434,-11.77293 -3.12798,0.0589 0.008,-7.136 -1.7415,-3.7796 -2.99415,-0.15348 0.0501,-3.17656 2.89076,-0.0506 -0.0108,-13.35165 -2.71353,-0.0248 -0.0155,-4.2581494 4.17392,0.004 -3.04322,-7.5235558 -36.749139,-0.0455 -3.399219,7.5607858 3.802826,0.009 v 4.2834694 l -1.968848,-0.007 v 10.2831 l -8.011874,-5.82704 -6.75463,-0.55862 -5.85389,16.62896 c -5.29727,31.43128 -3.73435,53.75456 16.363328,54.67828 l -0.266128,13.569571 -5.67356,0.84645 -2.21795,3.95378 -0.0708,25.29093 c 5.0678,2.57661 7.75281,5.94749 8.876975,9.83866 7.059101,48.60861 -5.351365,46.71718 1.060404,79.87887 3.004352,14.57907 10.144275,24.65144 21.727775,27.32701 28.09796,-10.34335 39.13433,-34.01049 40.94687,-64.88132 l -1.2268,-0.22841 -0.1106,-12.87 z m -19.40708,57.22391 v 0.003 c -1.3e-4,0.96632 -0.78345,1.74964 -1.74977,1.74977 -0.96652,1.5e-4 -1.75015,-0.78325 -1.75028,-1.74977 -1.5e-4,-0.96671 0.78357,-1.75042 1.75028,-1.75027 0.9655,1.3e-4 1.74849,0.78218 1.74977,1.74768 z M 109.55408,15.260999 v 9.9999 h -4.99971 v -9.9999 z m 0,23.41252 v 14.9996 h -4.99971 v -14.9996 z M 98.933259,218.97469 v 0.003 c 0,0.96651 -0.783747,1.74991 -1.750261,1.74977 -0.966304,-1.5e-4 -1.749601,-0.78347 -1.749731,-1.74977 1.3e-4,-0.96631 0.783427,-1.74963 1.749731,-1.74977 0.965504,-1.5e-4 1.748711,0.78167 1.750261,1.74718 z" />
    <path
       sodipodi:nodetypes="cccccccccccccccccccccccccccccscsccscssssssssccscccccccccccccccccscscscccccccccccccccccccccccccssccccssssssssssscsscccccsssscccsssccccssssssscccsscccccscssssscccccccccccsssccccscscsccccccccccccsscsccccccccscccccccccccccccccccccccccccsssccccccccssssssssccccccccccccccccccccccccccscsccccsssscccccccsssssscccccscccccccccccssccsccssccccsccsccccsssscscccccsccccsscccccccccccccccsssss"
       id="path1407"
       style="fill:none;fill-opacity:1;stroke:#000000;stroke-width:0.3;stroke-linejoin:round;stroke-opacity:1"
       d="m 84.815066,170.7664 c -0.047,-13.31288 -3.0451,-25.55343 -8.1086,-36.10738 l -9.063,0.91417 c -3.141,1.51367 -5.931,2.88893 -8.4625,4.16253 -0.015,-0.11962 -0.026,-0.20225 -0.041,-0.32349 -0.2183,-26.22928 -0.094,-52.100411 -0.096,-78.364031 h 5.3356 l 5.1728,-8.70181 -0.043,-11.77292 -3.128,0.0589 0.01,-7.136 -1.7947,-3.91501 -2.9409,-0.0181 0.017,-3.20961 2.9238,-0.0176 -0.011,-13.35218 -2.7135,-0.0243 -0.015,-4.2586591 4.1739,0.004 -3.0432,-7.5235858 -36.7491,-0.045 -3.3993,7.5607658 3.8029,0.009 v 4.2834691 l -1.9689,-0.007 v 10.2831 l -8.0119,-5.82705 -6.7545997,-0.5586 -5.8538967,16.62895 c -0.1491,0.88493 -0.2909,1.75964 -0.4288997,2.62983 -0.028,0.17989 -0.057,0.35973 -0.085,0.53898 -0.1324,0.84675 -0.2612,1.68921 -0.3824,2.5213 -10e-4,0.007 0,0.0148 0,0.0222 -0.016,0.10745 -0.03,0.21315 -0.045,0.32039 -0.1081,0.74993 -0.2106,1.49232 -0.309,2.22982 -0.026,0.1927 -0.052,0.38542 -0.077,0.57725 -0.1046,0.80023 -0.2045997,1.59533 -0.2971997,2.38021 -0.02,0.17286 -0.039,0.34256 -0.058,0.5147 -0.07,0.60949 -0.1359,1.21401 -0.1984,1.81382 -0.027,0.25874 -0.055,0.51774 -0.08,0.77465 -0.072,0.72088 -0.1383997,1.43632 -0.1984997,2.14249 -0.018,0.21513 -0.033,0.42659 -0.051,0.64026 -0.043,0.52811 -0.082,1.05199 -0.1173,1.5715 -0.019,0.27752 -0.038,0.55541 -0.055,0.83045 -0.04,0.64576 -0.076,1.28539 -0.1043,1.91719 -0.90269937,19.72064 3.7178982,32.55705 18.8540955,33.2527 1.512,-0.57761 4.6858,-1.67544 6.5866,-3.15947 7.1483,-5.58106 12.4637,-10.8277 16.2042,-15.75458 l -10.8004,69.017851 c 6.5947,1.65735 11.7968,4.40294 15.8455,7.22025 -5.3638,3.03234 -8.1947,5.06704 -9.6567,6.56239 -6.064,8.85113 -11.8277,17.81473 -15.9081,27.40969 -6.1352,35.86529 0.3326,64.59639 21.1661,69.40868 28.0977,-10.34338 39.1343,-34.01052 40.9469,-64.88132 l -1.2268,-0.22788 -0.1111,-12.87002 z m -9.9886,35.33583 -4.7108,4.83227 -6.5407,-1.66346 -1.8299,-6.49626 4.7114,-4.83225 6.5402,1.66347 z m -7.6863,21.85551 c 0,1.93283 -1.5667,3.49978 -3.4996,3.50004 -1.933,3e-5 -3.5,-1.56701 -3.5,-3.50004 0,-1.93303 1.567,-3.50007 3.5,-3.50004 1.9329,2.6e-4 3.4996,1.56721 3.4996,3.50004 z m -4.6742,-16.71886 -7.892,8.09561 -10.9564,-2.78638 -3.065,-10.88202 7.8916,-8.09614 10.9564,2.78691 z m -5.2803,-184.902771 v 3.24526 h -28.268 v -3.24526 z m -0.011,-17.6361491 v 4.2839691 h -25.9069 V 8.6999599 Z m -0.402,222.9862401 -6.8631,7.04093 -9.5292,-2.42311 -2.6659,-9.46404 6.8636,-7.0409 9.5286,2.42363 z m -0.4805,-159.164311 v 0.001 c 0,0.71733 -0.1119,1.2644 -0.3674,1.79319 -0.4239,0.8774 -0.815,1.07678 -2.28,1.16114 l -0.6511,0.0367 v -1.24489 -1.24486 l 0.7286,-0.0191 c 0.6416,-0.0169 0.7386,-0.0329 0.8108,-0.13179 0.1227,-0.16799 0.099,-0.4109 -0.057,-0.59272 -0.1266,-0.14723 -0.1798,-0.16404 -0.5953,-0.18294 -0.5745,-0.0262 -0.8707,0.0529 -1.1012,0.29353 -0.1,0.10413 -0.392,0.52323 -0.649,0.9312 -1.3158,2.08852 -1.8419,2.40406 -3.9011,2.34146 -1.0422,-0.0317 -1.3558,-0.11324 -1.742,-0.4532 -0.3012,-0.26512 -0.616,-0.79037 -0.7607,-1.26916 -0.1361,-0.45048 -0.1693,-1.65462 -0.059,-2.14251 0.1138,-0.50341 0.4374,-1.14533 0.7292,-1.44591 0.3107,-0.3202 0.7875,-0.53866 1.1906,-0.54363 0.1705,-0.003 0.31,-0.0251 0.31,-0.0501 0,-0.0249 0.3519,-0.045 0.7819,-0.045 h 0.7819 v 1.21595 1.21595 l -0.8832,0.006 c -0.4857,0.004 -0.9482,0.0233 -1.0278,0.0455 -0.3668,0.10166 -0.3668,0.70334 0,0.89347 0.269,0.13939 1.3065,0.11367 1.6288,-0.0403 0.2222,-0.1061 0.6008,-0.58161 1.3777,-1.72961 0.6038,-0.89236 0.8653,-1.16295 1.3555,-1.40302 0.8314,-0.40723 2.3496,-0.4213 3.1492,-0.0284 0.8062,0.39595 1.2308,1.30413 1.2309,2.63239 z m 0,63.183071 c 0,1.28936 -0.4709,2.37875 -1.172,2.71146 -0.2807,0.1332 -0.6394,0.19304 -1.4464,0.24133 l -0.6806,0.0408 v -1.24593 -1.24642 l 0.7286,-0.0186 c 0.6415,-0.0169 0.7386,-0.0328 0.8108,-0.1318 0.1223,-0.16732 0.1,-0.4106 -0.055,-0.59012 -0.1181,-0.13737 -0.1897,-0.16296 -0.5203,-0.18399 -0.5712,-0.0364 -0.8797,0.027 -1.1085,0.22791 -0.1085,0.0952 -0.3968,0.49125 -0.6408,0.87953 -1.3889,2.2107 -1.8993,2.5234 -4.0116,2.45721 -1.0666,-0.0334 -1.3193,-0.10443 -1.7457,-0.48781 -0.3476,-0.3125 -0.6595,-0.90824 -0.7829,-1.49553 -0.1053,-0.50332 -0.1035,-1.38385 0,-1.88207 h -5e-4 c 0.1648,-0.76445 0.6727,-1.53353 1.1865,-1.79625 0.3542,-0.18116 1.0411,-0.28837 1.8479,-0.28837 h 0.755 v 1.21594 1.21595 l -0.8831,0.006 c -0.4857,0.004 -0.9482,0.0238 -1.0279,0.046 -0.204,0.0566 -0.3184,0.31834 -0.2537,0.58033 0.074,0.30036 0.3244,0.41029 0.9374,0.41029 0.9984,2.4e-4 1.1,-0.0747 2.1038,-1.54874 0.8367,-1.22848 1.0551,-1.46798 1.5746,-1.72235 0.83,-0.40659 2.3496,-0.42053 3.1465,-0.029 0.8046,0.39513 1.2335,1.31106 1.2335,2.63395 z m -0.025,-13.4369 v 10e-4 0.003 h -2.9197 l -0.9576,-1.65982 h -2.5497 l -0.9586,1.66089 h -3.2654 c 0.015,-0.10273 0.031,-0.22587 0.052,-0.33022 h 5e-4 c 0.2394,-1.20166 1.0894,-1.99361 2.2975,-2.13993 0.3135,-0.0385 1.5688,-0.0534 3.3301,-0.0398 3.0725,0.0236 3.1173,0.0282 3.7026,0.37049 0.3073,0.17968 0.784,0.68422 0.9452,0.99994 0.1268,0.24863 0.2699,0.78335 0.3229,1.13483 z m 0,1.11879 v 0.003 c -0.049,0.31824 -0.1611,0.73829 -0.2811,1.00926 -0.2644,0.59704 -0.8839,1.13973 -1.5446,1.35391 -0.2836,0.0921 -0.6283,0.10573 -3.145,0.12505 -1.7613,0.0135 -3.0167,3e-5 -3.3301,-0.0398 -1.2065,-0.14611 -2.0439,-0.92409 -2.3011,-2.13784 -0.021,-0.0997 -0.039,-0.20416 -0.053,-0.30335 l 3.2763,-0.005 0.9518,1.63917 h 2.5498 l 0.9492,-1.63815 z m -0.1183,-31.587652 v 0.0424 l -10e-4,-0.0424 -10.3834,1.519281 0.01,-2.760035 c 0.6017,-0.0406 1.2937,-0.058 1.8516,-0.148817 v 0 c 0.6687,0.0119 1.4603,-0.008 2.2365,0.004 h 10e-4 c 0.2124,0.826794 0.9586,1.424731 1.8346,1.424681 0.8764,-5e-5 1.6235,-0.598187 1.8355,-1.425211 h 2.588 l 0.03,1.385421 z m 0,-3.946489 c 0,0.53451 -0.01,1.11807 -0.015,1.62832 l -2.5911,-0.005 c 0,0 -0.01,-0.004 -0.01,-0.005 -0.2122,-0.83287 -0.9646,-1.42829 -1.8381,-1.42834 -0.8778,0 -1.6248,0.59994 -1.8361,1.42731 0,0 -0.01,0.004 -0.01,0.006 h -2.2236 v 0.0104 0 -0.0222 l -1.8578,-0.15401 v -2.80187 l 10.3772,1.34357 z m 0,2.562098 h -6e-4 c 0,0.003 -0.01,0.003 -0.026,-0.003 l -5e-4,-0.0336 c 2e-4,0.0101 0.033,0.0289 0.026,0.0346 z m -0.01,3.387869 v 1.277934 c 0,0.201547 0,0.378177 0,0.550877 l -10.3183,0.0258 V 95.13898 93.802656 h 5.162 z m -0.015,7.064584 -0.015,1.72293 -0.015,1.72236 -2.4174,0.34471 c -1.3296,0.18963 -2.3983,0.36126 -2.3746,0.38137 0.024,0.0201 1.0465,0.1606 2.2728,0.31263 1.2262,0.15203 2.3014,0.28985 2.389,0.30644 l 0.1591,0.0305 v 1.72964 1.73064 h -5.1542 -5.1537 v -1.15809 -1.15907 h 3.484 c 1.9164,0 3.4695,-0.0145 3.451,-0.0331 -0.027,-0.0266 -6.7248,-0.95083 -6.8916,-0.95087 -0.024,-5e-5 -0.043,-0.36446 -0.043,-0.80976 0,-0.79237 0,-0.81061 0.1303,-0.83924 0.072,-0.0161 1.5892,-0.23964 3.3724,-0.49713 1.7831,-0.25746 3.2533,-0.47929 3.2669,-0.49298 0.014,-0.0138 -1.5038,-0.0253 -3.3724,-0.0253 h -3.3972 v -1.15809 -1.15808 h 5.1548 z m 0,28.55436 v 2.89544 h -1.0134 -1.0139 v -0.78187 -0.78187 h -4.1403 -4.1408 v -1.3317 -1.33171 h 4.1408 4.1403 v -0.78187 -0.78183 h 1.0134 1.0134 z m -6e-4,-53.353671 v 1.27744 1.27693 l -0.3617,0.0346 c -0.3296,0.032 -3.5473,0.28101 -5.6896,0.44029 -0.8923,0.0664 -1.3524,0.15941 -0.8278,0.1664 0.6923,0.01 3.1508,0.25821 5.6198,0.56637 l 1.2593,0.1571 v 1.36943 1.36992 l -0.3038,0.0351 c -0.4365,0.0508 -2.8284,0.2459 -5.0767,0.41444 -1.0643,0.0798 -1.9461,0.156 -1.9591,0.16899 -0.013,0.013 0.1677,0.0391 0.401,0.0579 0.2333,0.0188 0.9324,0.0746 1.5534,0.12404 1.6497,0.13128 4.2439,0.42044 5.1971,0.57927 l 0.1881,0.031 v 1.27898 1.27847 l -0.217,-0.032 c -0.1195,-0.0175 -2.4385,-0.28628 -5.1537,-0.59788 l -4.937,-0.5669 v -1.66707 c 0,-0.91701 0.02,-1.66811 0.043,-1.66811 0.024,0 0.4846,-0.0782 1.0237,-0.17312 1.0608,-0.18678 3.1637,-0.49037 3.8421,-0.55447 0.2316,-0.022 0.4331,-0.0592 0.4475,-0.0827 0.014,-0.0233 -0.097,-0.0582 -0.2475,-0.0775 -0.1506,-0.0193 -1.3616,-0.18436 -2.6913,-0.36693 l -2.418,-0.33177 6e-4,-1.65311 v -1.65261 l 4.9656,-0.57257 c 2.7311,-0.31502 5.0502,-0.58591 5.1537,-0.60152 z m 0,36.496301 v 1.29294 0.67233 l -10.3022,-0.007 -0.01,-0.62685 v -1.33219 h 5.1542 z m -0.039,3.09285 -0.01,0.15915 c -0.025,0.6827 -0.1665,1.36141 -0.3555,1.70015 -0.2307,0.41373 -0.667,0.74999 -1.1777,0.90848 -0.352,0.10923 -0.5549,0.13089 -1.2594,0.13179 -0.7816,0 -0.8596,-0.01 -1.1291,-0.14367 -0.3728,-0.18643 -0.5313,-0.42569 -0.7643,-1.15706 -0.015,-0.0483 -0.085,0.0691 -0.1566,0.26459 -0.2679,0.73229 -0.5315,0.98976 -1.1844,1.15652 -0.3004,0.0761 -0.5967,0.0903 -1.6211,0.0708 -1.4842,-0.0281 -1.7306,-0.0838 -2.1239,-0.47697 -0.3656,-0.36557 -0.4377,-0.65249 -0.4754,-1.89756 l -0.014,-0.73381 1.7591,0.005 c 0.01,0.0289 -0.001,0.0589 0.01,0.0936 0.071,0.35229 0.2048,0.3886 1.4185,0.3886 1.2766,0 1.3548,-0.0312 1.4164,-0.48472 l 1.6253,0.008 c 0.059,0.43 0.1646,0.4709 1.1317,0.47493 0.7224,0.003 0.8129,-0.009 0.9612,-0.11991 0.1068,-0.0795 0.1898,-0.20664 0.2242,-0.36277 z m -0.019,-18.892889 v 0.229967 c 0,1.936351 -0.6606,2.667005 -2.4902,2.754295 -1.0984,0.0525 -1.8086,-0.11642 -2.0774,-0.494027 -0.065,-0.0916 -0.169,-0.346197 -0.2305,-0.565817 -0.061,-0.21966 -0.1247,-0.360467 -0.1406,-0.312657 -0.2376,0.716944 -0.4487,1.005414 -0.8991,1.227291 -0.2657,0.13087 -0.3156,0.13386 -2.342,0.15246 l -2.0702,0.0186 v -1.216454 -1.215931 l 2.0996,-0.0207 c 1.4468,-0.0145 2.1482,-0.0421 2.2578,-0.0894 0.1189,-0.0512 0.1771,-0.13491 0.2294,-0.33072 l 0.05,-0.134887 1.5669,-0.006 0.044,0.137437 c 0.041,0.16369 0.1122,0.28373 0.1932,0.32711 0.07,0.0378 0.4286,0.08 0.7958,0.0941 0.8671,0.0332 1.086,-0.0331 1.2455,-0.37621 l 0.067,-0.182397 z m -2.5254,-6.385064 c 0,0.0111 -0.01,0.023 -0.01,0.0341 h -0.011 c 0.01,-0.01 0.012,-0.0222 0.019,-0.0341 z m -7.7189,107.563383 -4.9227,5.04931 -6.8352,-1.73736 -1.912,-6.78926 4.9232,-5.04931 6.8347,1.73789 z m -15.5025,20.49356 c 0,1.93302 -1.567,3.50005 -3.5,3.50004 -1.933,1e-5 -3.5,-1.56702 -3.5,-3.50004 -10e-5,-1.93304 1.567,-3.50009 3.5,-3.50007 1.933,-2e-5 3.5001,1.56703 3.5,3.50007 z" />
    <path
       id="path2235-0-3"
       style="fill:none;fill-opacity:1;stroke:#000000;stroke-width:0.264583;stroke-opacity:1"
       d="m 192.48115,220.67905 c -2.13644,-12.37256 -17.77749,-32.67758 -27.70093,-49.62406 -1.73082,-3.48886 -3.12848,-5.20638 -4.22752,-5.78802 -2.80857,-1.48644 -3.66776,4.44321 -3.15888,7.1738 0.99723,21.51389 1.80507,40.50865 2.59636,59.28508 l 14.75353,14.64192 12.04737,6.73029 2.34605,-0.50321 c 4.78432,-5.94683 5.07876,-18.48349 3.5588,-30.14952 -0.0376,-0.56876 -0.10966,-1.15776 -0.21471,-1.76624 z m -4.86806,-2.82475 -5.09846,6.0446 -8.28904,-1.38576 -3.19077,-7.43185 5.09792,-6.04504 8.28908,1.38629 z m 0.1597,15.71994 -5.35351,6.08612 -8.46488,-1.57688 -3.11013,-7.66217 5.35345,-6.08671 8.46434,1.577 z m -13.29124,-34.00797 -2.05154,2.432 -3.33446,-0.5581 -1.28444,-2.98925 2.05155,-2.43202 3.33492,0.55747 z m 0.71566,7.94304 -2.98809,3.54327 -4.85904,-0.812 -1.87013,-4.35654 2.98813,-3.54275 4.85916,0.81254 z m -1.51705,16.75497 -3.37465,4.00114 -5.48635,-0.91748 -2.11285,-4.91893 3.37484,-4.00055 5.48618,0.91696 z" />
    <path
       id="rect2068-5-5-2-9"
       style="fill:none;fill-opacity:1;stroke:#000000;stroke-width:0.3;stroke-linejoin:round;stroke-opacity:1"
       d="m 352.70367,40.041409 c 0.0545,3.99378 1.29487,7.672216 3.49903,11.051834 0.54332,0.833098 1.14499,1.647952 1.80208,2.444953 2.46172,2.985796 5.69852,5.720117 9.53543,8.216178 3.39418,2.208089 7.25826,4.229574 11.47044,6.073574 l 8.14681,5.636918 6.76587,0.39956 5.46111,-16.762066 c 4.55634,-31.547215 2.46866,-53.8270657 -17.64521,-54.2777107 -1.498,0.613011 -4.64565,1.785725 -6.51103,3.314122 C 359.09832,19.354703 352.57476,30.582444 352.70367,40.041409 Z m 9.22988,-5.075092 1.38333,-5.202673 5.19755,-1.403201 3.81374,3.799462 -1.38333,5.203176 -5.19756,1.402687 z m 9.78653,4.301926 2.21769,-8.340251 8.33132,-2.249221 6.11412,6.09053 -2.21819,8.340279 -8.33132,2.249221 z m 6.04088,15.146929 1.929,-7.253142 7.24596,-1.956431 5.31702,5.29723 -1.92849,7.253133 -7.24598,1.956429 z m 6.9734,-25.005624 1.32397,-4.979003 4.97364,-1.342617 3.64962,3.635859 -1.32397,4.978469 -4.9736,1.343143 z" />
    <path
       id="path1407-6"
       style="fill:none;fill-opacity:1;stroke:#000000;stroke-width:0.3;stroke-linejoin:round;stroke-opacity:1"
       d="m 265.66724,171.53554 1.35599,0.14624 -0.1111,12.87001 -1.22679,0.2279 c 1.81253,30.8708 12.84917,54.53794 40.94686,64.88132 20.83361,-4.8123 27.30143,-33.5434 21.16614,-69.40869 -4.08038,-9.59495 -9.84414,-18.55857 -15.90807,-27.40965 -1.46206,-1.49535 -4.293,-3.53006 -9.65677,-6.56239 4.04868,-2.81731 9.25079,-5.56288 15.84553,-7.22023 L 307.27866,70.042173 c 3.74044,4.92689 9.05544,10.17338 16.20366,15.75405 1.90082,1.48403 5.07469,2.58187 6.58667,3.15948 15.13615,-0.69567 19.75684,-13.53211 18.85416,-33.25271 -0.0288,-0.6318 -0.0644,-1.27143 -0.10438,-1.9172 -0.0172,-0.27504 -0.0363,-0.55292 -0.0553,-0.83044 -0.0356,-0.51951 -0.0748,-1.04337 -0.11731,-1.57148 -0.0172,-0.21368 -0.0318,-0.42513 -0.0501,-0.64027 -0.06,-0.70617 -0.12684,-1.42161 -0.19843,-2.14249 -0.0254,-0.25692 -0.0531,-0.51591 -0.0801,-0.77464 -0.0625,-0.59981 -0.12835,-1.20434 -0.19844,-1.81385 -0.0198,-0.17213 -0.038,-0.34184 -0.0584,-0.51469 -0.0926,-0.78488 -0.19262,-1.57999 -0.29716,-2.38022 -0.0251,-0.19182 -0.0513,-0.38454 -0.077,-0.57722 -0.0985,-0.73751 -0.20098,-1.47991 -0.30903,-2.22984 -0.0156,-0.10724 -0.0298,-0.21295 -0.0455,-0.3204 0,-0.007 -0.003,-0.0152 -0.003,-0.0222 -0.1212,-0.83207 -0.24997,-1.67454 -0.38242,-2.52129 -0.0281,-0.17925 -0.0563,-0.3591 -0.0847,-0.53899 -0.138,-0.87018 -0.27977,-1.74488 -0.42891,-2.62981 l -5.85391,-16.62897 -6.75463,0.55862 -8.0119,5.82705 v -10.28311 l -1.96887,0.007 V 9.4750933 l 3.80286,-0.009 -3.39929,-7.5607799 -36.74917,0.045 -3.04374,7.5235696 4.17391,-0.004 -0.0156,4.25866 -2.71354,0.0243 -0.0109,13.35216 2.92386,0.0176 0.0172,3.20962 -2.9409,0.0181 -1.79472,3.91501 0.008,7.136 -3.12798,-0.0589 -0.0434,11.77293 5.17281,8.70179 h 5.33559 c -0.003,26.26364 0.12219,52.134797 -0.0961,78.364077 -0.0156,0.12123 -0.0259,0.20387 -0.0413,0.32349 -2.53153,-1.2736 -5.32151,-2.64885 -8.46253,-4.16253 l -9.06302,-0.91416 c -5.06351,10.55394 -8.06124,22.79445 -8.10855,36.10731 z m 9.98855,35.33583 1.82986,-6.49624 6.54018,-1.66347 4.71133,4.83227 -1.82986,6.49624 -6.54068,1.66347 z m 7.68636,21.85552 c -5e-5,-1.93283 1.56668,-3.49978 3.49951,-3.50005 1.93305,-3e-5 3.50009,1.56701 3.50007,3.50005 0,1.93304 -1.56702,3.50007 -3.50007,3.50004 -1.93283,-2.7e-4 -3.49954,-1.56722 -3.49951,-3.50004 z m 4.67413,-16.71888 3.06543,-10.88202 10.95645,-2.78691 7.89149,8.09614 -3.06491,10.88203 -10.95644,2.78639 z m 5.28029,-181.657477 v -3.24528 h 28.26805 v 3.24528 z m 0.0109,-16.59744 V 9.4691136 h 25.90694 v 4.2839794 z m 0.40203,218.702247 2.66599,-9.4635 9.5286,-2.42363 6.86369,7.04091 -2.66599,9.46403 -9.52916,2.42311 z m 0.44029,-95.48612 v -5.3e-4 c 0,-0.7287 0.11409,-1.28443 0.37362,-1.8216 0.43058,-0.89132 0.82743,-1.09336 2.31561,-1.17927 l 0.66146,-0.0382 v 1.26504 1.26453 l -0.73999,0.0196 c -0.6517,0.017 -0.75033,0.0334 -0.82373,0.13384 -0.12464,0.17075 -0.10096,0.41733 0.0579,0.60204 0.12867,0.14966 0.18315,0.16692 0.60513,0.18602 0.58367,0.0265 0.88464,-0.0538 1.11882,-0.29817 0.10136,-0.10577 0.39777,-0.53124 0.65886,-0.94567 1.33655,-2.12155 1.8713,-2.44227 3.96307,-2.37867 1.05867,0.0322 1.37705,0.11457 1.7694,0.45992 0.30599,0.26932 0.62558,0.80342 0.77255,1.28984 0.13827,0.45757 0.17201,1.6805 0.0599,2.17609 v 5.3e-4 c -0.11557,0.51134 -0.44471,1.16332 -0.74101,1.46865 -0.31568,0.32526 -0.80024,0.54642 -1.20976,0.55242 -0.17319,0.003 -0.31469,0.0253 -0.31469,0.0506 0,0.0254 -0.35751,0.046 -0.79428,0.046 h -0.79426 v -1.23507 -1.23506 l 0.8971,-0.006 c 0.4934,-0.004 0.96348,-0.024 1.04436,-0.0465 0.37264,-0.10327 0.37264,-0.71434 0,-0.90744 -0.27323,-0.14164 -1.32717,-0.11563 -1.65467,0.0408 -0.22567,0.10777 -0.61024,0.5908 -1.39938,1.75699 -0.61339,0.90647 -0.87924,1.18135 -1.37719,1.42524 -0.84457,0.41371 -2.38704,0.42792 -3.19929,0.0289 -0.81909,-0.40227 -1.25005,-1.32524 -1.25005,-2.67477 z m 0,-64.181997 v -10e-4 c 0,-1.30971 0.47795,-2.4159 1.19007,-2.75383 0.28522,-0.13536 0.64995,-0.19637 1.46971,-0.24547 l 0.69091,-0.0413 v 1.26556 1.26607 l -0.73999,0.0191 c -0.6517,0.017 -0.75033,0.0332 -0.82373,0.13384 -0.12414,0.16998 -0.10102,0.4176 0.0558,0.59997 0.11999,0.13954 0.19275,0.16525 0.52864,0.18655 0.58023,0.037 0.89366,-0.0274 1.12604,-0.23151 0.11017,-0.0967 0.40333,-0.49907 0.65114,-0.89349 1.41092,-2.24569 1.92945,-2.56307 4.07519,-2.49597 1.08344,0.034 1.33985,0.10561 1.773,0.49506 0.35314,0.31747 0.67003,0.9227 0.79531,1.51929 0.10732,0.51128 0.10541,1.40593 -0.004,1.91203 v 5.3e-4 c -0.1674,0.77656 -0.68371,1.55831 -1.2056,1.82522 -0.35986,0.18398 -1.0573,0.29248 -1.8769,0.29248 h -0.76737 v -1.23501 -1.23559 l 0.89707,-0.006 c 0.49342,-0.004 0.96348,-0.0245 1.04439,-0.047 0.20725,-0.0575 0.32364,-0.32356 0.25789,-0.58963 -0.0755,-0.30513 -0.3297,-0.41651 -0.95242,-0.41651 -1.0142,-2e-4 -1.11768,0.0757 -2.13736,1.57303 -0.84992,1.24798 -1.07172,1.49082 -1.59938,1.74925 -0.84317,0.41303 -2.38707,0.42714 -3.19667,0.0295 -0.81732,-0.40139 -1.25264,-1.33149 -1.25264,-2.6753 z m 0.0257,13.64617 2.96571,-5.3e-4 0.97306,1.68516 h 2.59003 l 0.97356,-1.68671 3.31661,-0.001 c -0.0151,0.10437 -0.0316,0.22992 -0.0527,0.33589 -0.24318,1.22065 -1.10699,2.02485 -2.3342,2.1735 -0.31838,0.0389 -1.59362,0.0535 -3.38275,0.0398 -3.12116,-0.0239 -3.16648,-0.0285 -3.761,-0.3762 -0.31213,-0.18255 -0.79696,-0.69525 -0.96068,-1.01595 -0.1289,-0.25269 -0.27376,-0.79688 -0.32763,-1.15393 z m 0,-1.13326 v -0.001 c 0.0495,-0.32329 0.16385,-0.74998 0.28577,-1.02525 0.26861,-0.60652 0.89715,-1.15804 1.56837,-1.37563 0.28806,-0.0934 0.63858,-0.10752 3.19517,-0.12712 1.78913,-0.0138 3.06437,10e-4 3.38272,0.0398 1.2256,0.14843 2.076,0.939 2.33733,2.17195 0.0214,0.10127 0.0398,0.20765 0.0548,0.3085 l -3.32848,0.005 -0.96684,-1.665 h -2.59006 l -0.96425,1.66397 z m 0.11988,32.087337 v -0.0424 l 0.003,0.0424 10.54767,-1.54306 -0.005,2.80344 c -0.61119,0.0412 -1.31379,0.0592 -1.8805,0.15141 h -0.003 c -0.67924,-0.013 -1.48312,0.008 -2.27166,-0.004 v -0.001 c -0.21574,-0.83988 -0.97364,-1.44696 -1.86346,-1.44694 -0.8903,5e-5 -1.6496,0.60784 -1.86497,1.44797 h -2.62882 l -0.0295,-1.40766 z m 0.003,4.00906 c 0.004,-0.54326 0.008,-1.13655 0.0146,-1.65521 l 2.63187,0.005 c 0.003,0.001 0.007,0.005 0.009,0.006 0.21556,0.84609 0.97975,1.45052 1.86709,1.45056 0.89164,0 1.65039,-0.60911 1.86499,-1.44953 0.003,-0.002 0.005,-0.004 0.008,-0.006 h 2.2593 v -0.01 c 0,-0.001 0.003,-0.001 0.004,-0.001 v 0.0222 l 1.88722,0.1571 -0.004,2.84582 z m 0.003,-2.60294 c 0.003,-0.002 0.0106,-0.002 0.0265,0.002 v 0.0336 c -2.4e-4,-0.0104 -0.0344,-0.0311 -0.0274,-0.0357 z m 0.007,-3.44114 0.004,-1.29811 c 0.005,-0.2047 -0.005,-0.38425 0.003,-0.55966 l 10.48152,-0.0264 v 0.5266 1.35754 h -5.24359 z m 0.0145,-7.1763 0.0154,-1.75028 0.0156,-1.74976 2.45568,-0.35037 c 1.35061,-0.19265 2.43638,-0.36676 2.41225,-0.38705 -0.0241,-0.0204 -1.06328,-0.1634 -2.30891,-0.31782 -1.24563,-0.15444 -2.33775,-0.29419 -2.42673,-0.31109 l -0.16174,-0.031 v -1.757 -1.757497 h 5.23584 5.23534 v 1.176647 1.17669 h -3.53931 c -1.94664,0 -3.52401,0.0153 -3.5052,0.0341 0.027,0.027 6.83117,0.9653 7.00059,0.96531 0.0243,3e-5 0.0439,0.37039 0.0439,0.82269 0,0.80488 -0.003,0.82305 -0.13229,0.85215 -0.0728,0.0163 -1.61425,0.24384 -3.42564,0.50539 -1.81142,0.26153 -3.30528,0.48685 -3.31917,0.50074 -0.014,0.0141 1.52802,0.0253 3.42614,0.0253 h 3.45096 v 1.17616 1.17667 h -5.2364 z m 0.003,25.19173 v -1.29758 -1.29708 l 0.36796,-0.0357 c 0.33478,-0.0325 3.60336,-0.28568 5.77948,-0.44753 0.90643,-0.0674 1.37414,-0.16198 0.84129,-0.16897 -0.70329,-0.0101 -3.20116,-0.26161 -5.7092,-0.57466 l -1.27953,-0.15967 v -1.39164 -1.39165 l 0.30904,-0.0357 c 0.44344,-0.0516 2.87342,-0.24995 5.15731,-0.42116 1.08119,-0.0812 1.97636,-0.15795 1.98953,-0.17106 0.0132,-0.0133 -0.1697,-0.0398 -0.40669,-0.0589 -0.23699,-0.019 -0.94729,-0.0759 -1.57821,-0.12609 -1.67574,-0.13335 -4.31089,-0.42672 -5.27926,-0.58809 l -0.19172,-0.032 v -1.29863 -1.29914 l 0.22066,0.0326 c 0.12137,0.0178 2.47767,0.29118 5.23584,0.60771 l 5.01471,0.57567 v 1.69344 c 0,0.93152 -0.0196,1.69447 -0.0439,1.69447 -0.0241,2.6e-4 -0.49212,0.0797 -1.03971,0.17621 -1.07759,0.18976 -3.21394,0.49756 -3.90313,0.56275 -0.23527,0.0224 -0.44005,0.0597 -0.45474,0.0837 -0.0148,0.0237 0.0987,0.0595 0.25165,0.0791 0.15295,0.0196 1.38289,0.18766 2.7337,0.37311 l 2.45618,0.33693 v 1.67896 1.67897 l -5.04415,0.58188 c -2.77432,0.32 -5.13017,0.5944 -5.23534,0.6103 z m 0,-37.074168 v -1.31516 -0.68317 l 10.46605,0.009 0.005,0.63613 v 1.35289 h -5.23531 z m 0,-14.182509 v -2.9409 -2.94143 h 1.02992 1.02939 v 0.79426 0.79376 h 4.20595 4.20595 v 1.35341 1.35289 h -4.20595 -4.20595 v 0.79374 0.79427 h -1.02939 z m 0.0398,11.041119 0.006,-0.16072 c 0.0249,-0.69351 0.16981,-1.38291 0.36174,-1.72701 0.23439,-0.420279 0.67707,-0.762469 1.19578,-0.923449 0.35764,-0.11092 0.56396,-0.13284 1.27953,-0.13384 0.79404,-10e-4 0.87297,0.009 1.1467,0.14571 0.3787,0.18941 0.54007,0.43327 0.77669,1.176169 0.0156,0.049 0.0865,-0.0707 0.15917,-0.26924 0.27218,-0.743899 0.53927,-1.005169 1.20251,-1.174589 0.30517,-0.0773 0.6069,-0.091 1.64745,-0.0713 1.50773,0.0286 1.758,0.0848 2.15747,0.48419 0.37142,0.37138 0.44439,0.663249 0.48267,1.928049 l 0.014,0.74517 -1.78647,-0.005 c -0.005,-0.0293 0,-0.0599 -0.007,-0.0951 -0.0721,-0.35784 -0.20788,-0.39481 -1.44073,-0.39481 -1.29681,0 -1.37605,0.0317 -1.4387,0.49248 l -1.65156,-0.009 c -0.0601,-0.43682 -0.16684,-0.48014 -1.14927,-0.48214 -0.73382,-0.003 -0.82613,0.009 -0.97668,0.12143 -0.10856,0.0808 -0.19344,0.2104 -0.22842,0.36898 z m 0.0196,19.191518 v -0.23563 c 0,-1.967 0.67104,-2.70906 2.52958,-2.79777 1.1157,-0.0533 1.83732,0.11823 2.11045,0.50178 0.0663,0.0931 0.17113,0.35202 0.23357,0.57515 0.0624,0.2232 0.12658,0.36591 0.14264,0.3173 0.24135,-0.72826 0.45654,-1.02105 0.91416,-1.24643 0.26982,-0.13287 0.32023,-0.13623 2.37866,-0.15503 l 2.10272,-0.0191 v 1.23507 1.23506 l -2.13217,0.0212 c -1.46963,0.0147 -2.18305,0.0435 -2.29444,0.0915 -0.12179,0.0521 -0.18039,0.13698 -0.2336,0.33589 l -0.0512,0.13695 -1.59162,0.006 -0.0444,-0.14005 c -0.0419,-0.16626 -0.11401,-0.28818 -0.19637,-0.33228 -0.0716,-0.0383 -0.43511,-0.0814 -0.8082,-0.0956 -0.88083,-0.0337 -1.10363,0.0333 -1.26556,0.38189 l -0.0677,0.18604 z m 2.56522,6.48644 c 0.003,-0.0112 0.005,-0.0229 0.008,-0.0341 h 0.0119 c -0.006,0.01 -0.0127,0.0216 -0.0196,0.0341 z m 7.7189,79.88138 1.91204,-6.78873 6.83472,-1.73788 4.92323,5.04932 -1.91204,6.78924 -6.83524,1.73736 z m 15.86505,20.67486 c -3e-5,-1.93303 1.567,-3.50006 3.50004,-3.50004 1.93302,-2e-5 3.50007,1.56701 3.50004,3.50004 3e-5,1.93303 -1.56702,3.50007 -3.50004,3.50005 -1.93304,2e-5 -3.50007,-1.56702 -3.50004,-3.50005 z"
       sodipodi:nodetypes="ccccccccccscccsssccsssccccscccccccccccccccccccccccccccccsccccccccscscscccccccccccccccccccccccccssscccccscsssssccscsscccccssssccccssccccccscsscssccsscccccscsssccccccccccsscscccssccsccccccccccccsccsccccccccscccscccccccccccccccccccccccsccccccccsssscsssccccccccsscscccccccssccccccsccccsccccscccccccccccccccccccccccccccccssccsccssccccscccccccsssscsccccccccccsccccccccccccccccsssss" />
    <path
       d="m 315.1871,260.76115 c -8.00944,10.63406 -13.02005,22.19722 -15.36571,33.6656 l 7.77186,4.74999 c 11.05874,1.43613 23.61088,5.55278 33.11682,4.41562 10.1809,-3.38568 20.19105,-7.04208 29.2414,-12.21927 26.56676,-24.86292 38.78035,-51.66036 25.09244,-68.08714 -28.63567,-8.74407 -51.73335,3.43839 -71.83754,26.93549 l 0.83948,0.92315 -7.69088,10.31985 z m 29.31598,-22.11184 6.67408,-1.00219 4.20514,5.27851 -2.46884,6.28144 -6.67519,1.00197 -4.20401,-5.27831 z m 19.30755,-12.79938 c 1.16679,-1.54093 3.36242,-1.84404 4.90332,-0.67678 1.54108,1.1669 1.84311,3.3628 0.67605,4.90343 -1.16692,1.5411 -3.36217,1.8439 -4.90302,0.67635 -1.54031,-1.1676 -1.84393,-3.36222 -0.67635,-4.903 z m -6.35609,16.17858 11.1803,-1.67799 7.04431,8.84193 -4.13543,10.52168 -11.18115,1.67994 -7.04262,-8.84329 z m 16.89615,-12.84791 9.7224,-1.45964 6.12624,7.69058 -3.59675,9.15099 -9.72353,1.45944 -6.12545,-7.68993 z m -11.66814,33.50493 6.97414,-1.0463 4.39481,5.51586 -2.58091,6.56419 -6.97403,1.04701 -4.39481,-5.51585 z m 24.71959,-6.81006 a 3.4999998,3.4999998 0 0 1 4.90393,-0.67241 3.4999998,3.4999998 0 0 1 0.67242,4.90391 3.4999998,3.4999998 0 0 1 -4.90394,0.67243 3.4999998,3.4999998 0 0 1 -0.67241,-4.90393 z"
       style="fill:none;fill-opacity:1;stroke:#000000;stroke-width:0.3;stroke-linejoin:round;stroke-opacity:1"
       id="rect2068-8-6-4" />
    <path
       d="m 190.60537,144.96066 c 5.10659,11.4703 3.40277,37.04438 4.58228,56.64711 0.50228,3.86204 0.29613,6.06678 -0.29403,7.16145 -1.50718,2.79748 -5.51947,-1.6523 -6.61542,-4.20453 -11.13804,-18.43332 -21.03221,-34.66782 -30.81874,-50.71162 l 4.11626,-20.37423 6.26811,-12.29421 2.2295,-0.8868 c 7.28373,2.28076 14.5017,12.5353 19.72761,23.07555 0.2844,0.49402 0.5529,1.02309 0.804,1.58724 z m -2.47425,5.05522 -7.59917,-2.18728 -6.11763,5.7622 1.48221,7.95093 7.59897,2.18793 6.11739,-5.76267 z m -8.61124,-13.15251 -7.83421,-2.07998 -6.15744,6.01888 1.67738,8.09746 7.83445,2.08044 6.15692,-6.01866 z m 7.87095,35.65457 -3.05762,-0.87996 -2.46061,2.31856 0.5953,3.19857 3.05767,0.87995 2.46133,-2.31827 z m -3.82345,-6.99896 -4.45406,-1.28249 -3.5863,3.37754 0.86909,4.66062 4.45382,1.28202 3.58614,-3.37805 z m -10.58037,-13.08004 -5.02998,-1.44793 -4.04895,3.81413 0.98021,5.26298 5.02984,1.44737 4.04912,-3.81362 z"
       style="fill:none;fill-opacity:1;stroke:#000000;stroke-width:0.264583;stroke-opacity:1"
       id="path2235-0-3-6" />
    <path
       d="m 400.14175,85.244727 c 2.28279,3.277506 3.41802,6.989776 3.59587,11.020697 0.0439,0.993634 0.0297,2.006438 -0.04,3.037042 -0.2609,3.860944 -1.29826,7.969124 -2.96217,12.233344 -1.47192,3.77224 -3.43441,7.66661 -5.78324,11.61956 l -3.33651,9.32807 -5.26586,4.26701 -14.20506,-10.44066 c -22.08459,-22.98383 -33.36972,-42.307261 -17.28557,-54.393274 1.57461,-0.374634 4.81604,-1.255586 7.22259,-1.100368 20.80944,1.342308 32.65328,6.666095 38.05995,14.428604 z m -10.45833,1.253426 -4.15566,-3.422253 -5.04167,1.888054 -0.88564,5.310009 4.15597,3.42264 5.0414,-1.88848 z m -5.44697,9.19851 -6.66195,-5.48601 -8.0815,3.02647 -1.42022,8.512307 6.66239,5.48574 8.08147,-3.02645 z m 3.91617,15.829847 -5.79388,-4.77069 -7.0288,2.63197 -1.23468,7.40318 5.79348,4.77102 7.02883,-2.63202 z m -20.23735,-16.259067 -3.97716,-3.27499 -4.82441,1.80682 -0.84759,5.081416 3.97683,3.274561 4.82472,-1.80638 z"
       style="fill:none;fill-opacity:1;stroke:#000000;stroke-width:0.3;stroke-linejoin:round;stroke-opacity:1"
       id="rect2068-5-5-2-9-4" />
    <path
       id="path1150"
       style="fill:none;stroke:#000000;stroke-width:0.3;stroke-linejoin:round;stroke-opacity:1"
       d="m 135.89114,104.30767 h 5.00022 v 1.05782 c 18.22413,14.91576 44.46816,22.2236 69.99986,0 v -1.05833 h 5.00021 v -9.999877 h -5.00021 V 80.894741 h 5.00021 V 65.89516 h -5.00021 v -0.52917 l 0.03,-26.50225 a 34.999999,34.999999 0 0 0 0.0904,-2.51355 A 34.999999,34.999999 0 0 0 176.01169,1.3502751 34.999999,34.999999 0 0 0 141.0314,35.1823 l -0.14004,-10e-4 v 30.18479 0.52917 h -5.00022 v 15.000101 h 5.00022 v 13.412542 h -5.00022 z M 156.2961,62.89379 v -5.3e-4 a 1.75,1.75 0 0 1 0,-0.003 1.75,1.75 0 0 1 1.75028,-1.74976 1.75,1.75 0 0 1 1.74977,1.74976 1.75,1.75 0 0 1 -1.74977,1.75029 1.75,1.75 0 0 1 -1.75028,-1.74719 z M 173.5643,9.7564703 a 1.75,1.75 0 0 1 0,-0.002 1.75,1.75 0 0 1 1.75028,-1.7502791 1.75,1.75 0 0 1 1.74976,1.7502791 1.75,1.75 0 0 1 -1.74976,1.7497597 1.75,1.75 0 0 1 -1.75028,-1.7476997 z M 192.22673,62.94857 a 1.75,1.75 0 0 1 0,-0.002 1.75,1.75 0 0 1 1.74976,-1.75028 1.75,1.75 0 0 1 1.75028,1.75028 1.75,1.75 0 0 1 -1.75028,1.74977 1.75,1.75 0 0 1 -1.74976,-1.7477 z" />
    <path
       d="m 196.96686,171.36172 c 0.0473,-13.31285 3.04501,-25.55341 8.10855,-36.10735 l 9.06301,0.91416 c 3.08919,1.48868 5.83731,2.84274 8.33644,4.09895 0.14539,-26.13567 0.28521,-52.537567 0.35605,-78.673617 l -5.42809,0.0496 -5.17282,-8.70177 0.0434,-11.77293 3.12798,0.0589 -0.008,-7.136 1.7415,-3.7796 2.99415,-0.15348 -0.0501,-3.17656 -2.89076,-0.0506 0.0108,-13.35165 2.71353,-0.0248 0.0155,-4.2581494 -4.17392,0.004 3.04322,-7.5235499 36.74916,-0.0455 3.39924,7.5607799 -3.80285,0.009 v 4.2834694 l 1.96886,-0.007 v 10.2831 l 8.0119,-5.82704 6.75463,-0.55862 5.85389,16.62896 c 5.29727,31.43128 3.73435,53.75456 -16.36333,54.67828 l 0.26613,13.569617 5.67356,0.84645 2.21795,3.95378 0.0708,25.29097 c -5.0678,2.57661 -7.75281,5.94749 -8.87698,9.83866 -7.05914,48.60861 5.35137,46.71718 -1.06041,79.87887 -3.00437,14.57907 -10.14432,24.65144 -21.72782,27.32701 -28.09796,-10.34335 -39.13433,-34.01049 -40.94687,-64.88132 l 1.2268,-0.22841 0.1106,-12.87 z m 19.40708,57.22391 v 0.003 c 1.3e-4,0.96632 0.78345,1.74964 1.74977,1.74977 0.96652,1.5e-4 1.75015,-0.78325 1.75028,-1.74977 1.5e-4,-0.96671 -0.78357,-1.75042 -1.75028,-1.75027 -0.9655,1.3e-4 -1.74849,0.78218 -1.74977,1.74768 z M 242.49638,15.312973 v 9.9999 h 4.99971 v -9.9999 z m 0,23.41252 v 14.9996 h 4.99971 v -14.9996 z m 10.62083,180.301257 v 0.003 c 0,0.96651 0.78376,1.74991 1.75027,1.74977 0.96631,-1.5e-4 1.74961,-0.78347 1.74974,-1.74977 -1.3e-4,-0.96631 -0.78343,-1.74963 -1.74974,-1.74977 -0.9655,-1.5e-4 -1.74871,0.78167 -1.75027,1.74718 z"
       style="fill:none;fill-opacity:1;stroke:#000000;stroke-width:0.3;stroke-linejoin:round;stroke-opacity:1"
       id="path1379-0-8-7"
       sodipodi:nodetypes="cccccccccccccccccccccccccccccccccccccccccsssscccccccccccccsscscc" />
    <path
       sodipodi:nodetypes="ccccccccccccccsccccsccccccccccccssccsscsccccccccsccscscccc"
       id="path1379-33-8-0"
       style="fill:none;fill-opacity:1;stroke:#000000;stroke-width:0.3;stroke-linejoin:round;stroke-opacity:1"
       inkscape:transform-center-x="-1.3471715"
       inkscape:transform-center-y="11.936069"
       d="m 150.26555,247.06945 c -10.50341,9.07362 17.526,48.98388 22.03328,46.51995 20.36482,-7.87559 34.29398,13.8044 37.51994,2.33224 9.34207,-10.97796 35.07349,-2.33802 55.00147,-1.95915 4.29731,-0.0275 4.00941,1.18434 6.3433,2.34751 1.99528,0.94822 4.38139,0.0983 5.32954,-1.89701 1.06035,-7.36955 8.64597,-12.9344 13.79707,-18.77721 l 7.34042,-14.8826 c 1.41834,-0.11966 2.66729,-0.98276 3.27816,-2.26846 0.94791,-1.99539 0.0981,-4.38209 -1.89733,-5.32995 -46.99077,-16.03283 -96.0601,19.3017 -114.85434,0.47948 -11.96952,-6.70051 -21.03926,-8.47333 -30.35348,-8.16213 -1.4814,0.28148 -2.64792,0.82832 -3.53803,1.59733 z m 4.02652,3.33721 0.002,-0.002 c 0.29611,-0.24598 0.66526,-0.38645 1.0499,-0.40106 l 3.4e-4,4.2e-4 c 0.54402,-0.0211 1.06655,0.21282 1.41429,0.6317 0.61697,0.74418 0.51345,1.84793 -0.23105,2.46453 -0.74399,0.61679 -1.84732,0.51257 -2.46412,-0.2314 -0.61636,-0.74346 -0.51373,-1.84574 0.22907,-2.46285 z m 16.31062,34.29193 -7.7e-4,0.004 c 0.002,-0.002 0.002,-0.002 0.003,-0.004 0.29637,-0.24567 0.66568,-0.38678 1.05031,-0.4014 l -3.5e-4,-4.1e-4 c 0.54397,-0.0201 1.06695,0.21262 1.41389,0.63206 0.61676,0.74395 0.51363,1.84699 -0.23027,2.46386 -0.74431,0.61681 -1.84829,0.51377 -2.46453,-0.23106 -0.61616,-0.74322 -0.51377,-1.84544 0.22868,-2.46253 z m 38.83226,-20.96955 c 0.47762,-0.40401 1.13455,-0.52238 1.72312,-0.31043 0.9094,0.32743 1.38114,1.3301 1.05364,2.23946 -0.32743,0.9094 -1.3301,1.38115 -2.23946,1.05366 -0.9094,-0.32744 -1.38114,-1.33012 -1.05363,-2.23948 0.10403,-0.28871 0.28203,-0.54503 0.51633,-0.74321 z m 86.53168,-8.45452 c 0.36388,-0.32379 0.83569,-0.50409 1.321,-0.50652 0.29083,-0.002 0.5864,0.061 0.86666,0.19405 0.9976,0.47402 1.42232,1.66689 0.94837,2.66455 -0.4738,0.99787 -1.6672,1.4226 -2.66499,0.94869 -0.99008,-0.47039 -1.41683,-1.64976 -0.95739,-2.64482 0.003,-0.008 0.006,-0.0108 0.01,-0.0198 0.11842,-0.24945 0.28212,-0.46323 0.4765,-0.63554 z m -24.41756,35.93325 v 0 c 0.36388,-0.32352 0.83561,-0.50447 1.32066,-0.5069 l 9.3e-4,0.002 c 0.29108,-0.002 0.58692,0.06 0.86747,0.19339 0.99758,0.47404 1.42185,1.66725 0.94795,2.66491 -0.47406,0.99758 -1.66697,1.42227 -2.66457,0.94834 -0.99005,-0.47034 -1.41733,-1.64942 -0.9578,-2.64449 0.002,-0.008 0.006,-0.0119 0.01,-0.0209 0.11857,-0.24916 0.28107,-0.46299 0.47538,-0.63529 z" />
    <path
       id="rect2068-8-6-4-9"
       style="fill:none;fill-opacity:1;stroke:#000000;stroke-width:0.3;stroke-linejoin:round;stroke-opacity:1"
       d="m 398.40671,180.28592 c 3.44881,12.85846 3.76897,25.45649 1.65323,36.96952 l -8.9846,1.49703 c -10.79281,-2.80595 -23.97351,-3.68489 -32.36349,-8.29615 -8.1746,-6.94905 -16.08955,-14.0853 -22.54541,-22.27274 -15.3343,-32.99725 -16.63416,-62.41807 2.20578,-72.53015 29.82736,2.60542 46.68912,22.54527 56.54127,51.85783 l -1.12392,0.54198 3.27096,12.4479 z m -18.91316,-31.47465 -5.81431,-3.42657 -5.87471,3.3217 -0.0608,6.74894 5.81544,3.42678 5.87358,-3.32196 z m -13.11606,-19.09381 c -0.50549,-1.86556 -2.42846,-2.968 -4.29394,-2.46226 -1.86576,0.50554 -2.96767,2.42867 -2.46162,4.29431 0.50553,1.86578 2.42821,2.96783 4.29381,2.46176 1.8653,-0.50645 2.96775,-2.42841 2.46175,-4.29381 z m -0.15902,17.38162 -9.74036,-5.73933 -9.84094,5.56397 -0.10176,11.30472 9.74041,5.74149 9.83988,-5.56586 z m -10.86167,-18.23657 -8.47005,-4.99136 -8.55879,4.83974 -0.0884,9.8321 8.47118,4.99158 8.55779,-4.83945 z m -1.71564,35.43701 -6.07609,-3.57974 -6.13942,3.47081 -0.0626,7.0531 6.07573,3.58036 6.1394,-3.47082 z m -20.37599,-15.5645 a 3.4999999,3.4999999 0 0 0 -4.29611,-2.45845 3.4999999,3.4999999 0 0 0 -2.45847,4.29613 3.4999999,3.4999999 0 0 0 4.29615,2.45844 3.4999999,3.4999999 0 0 0 2.45843,-4.29612 z" />
  </g>
</svg>
