<?xml version="1.0" encoding="UTF-8" standalone="no"?>
<svg
   xmlns:dc="http://purl.org/dc/elements/1.1/"
   xmlns:cc="http://creativecommons.org/ns#"
   xmlns:rdf="http://www.w3.org/1999/02/22-rdf-syntax-ns#"
   xmlns:svg="http://www.w3.org/2000/svg"
   xmlns="http://www.w3.org/2000/svg"
   xmlns:sodipodi="http://sodipodi.sourceforge.net/DTD/sodipodi-0.dtd"
   xmlns:inkscape="http://www.inkscape.org/namespaces/inkscape"
   inkscape:version="1.0 (4035a4fb49, 2020-05-01)"
   sodipodi:docname="TGRI_BUMP_ACTIVATION.svg"
   viewBox="0 0 1000 1000"
   height="264.58334mm"
   width="264.58334mm"
   id="svg833"
   version="1.1">
  <metadata
     id="metadata839">
    <rdf:RDF>
      <cc:Work
         rdf:about="">
        <dc:format>image/svg+xml</dc:format>
        <dc:type
           rdf:resource="http://purl.org/dc/dcmitype/StillImage" />
        <dc:title />
      </cc:Work>
    </rdf:RDF>
  </metadata>
  <defs
     id="defs837" />
  <sodipodi:namedview
     inkscape:snap-bbox-edge-midpoints="true"
     inkscape:bbox-nodes="true"
     inkscape:snap-bbox-midpoints="true"
     inkscape:snap-bbox="true"
     inkscape:snap-text-baseline="false"
     inkscape:snap-center="false"
     inkscape:document-units="mm"
     inkscape:current-layer="g841"
     inkscape:window-maximized="1"
     inkscape:window-y="-9"
     inkscape:window-x="-9"
     inkscape:cy="296.68222"
     inkscape:cx="371.33034"
     inkscape:zoom="0.28319627"
     inkscape:snap-object-midpoints="false"
     units="mm"
     showgrid="false"
     id="namedview835"
     inkscape:window-height="1001"
     inkscape:window-width="1920"
     inkscape:pageshadow="2"
     inkscape:pageopacity="0"
     guidetolerance="10"
     gridtolerance="10"
     objecttolerance="10"
     borderopacity="1"
     bordercolor="#666666"
     pagecolor="#ffffff"
     inkscape:document-rotation="0"
     inkscape:snap-global="true" />
  <g
     id="g841"
     inkscape:label="Image"
     inkscape:groupmode="layer">
    <path
       id="rect2340"
       style="fill:#000080;fill-opacity:1;stroke:none;stroke-width:3.29453;stroke-linejoin:round;stroke-opacity:1"
       d="m 840.75894,44.342953 c -12.4495,0 -22.4727,10.0212 -22.4727,22.4707 V 227.23935 c 0,12.4495 10.0232,22.4707 22.4727,22.4707 h 3.0918 V 482.2843 h -0.022 c -22.2122,0 -37.4978,18.03392 -40.0957,40.09375 l -33.707,399.83594 c -2.5979,22.05977 17.8835,40.09377 40.0957,40.09377 h 439.16206 c 22.2122,0 42.6915,-18.034 40.0937,-40.09377 l -33.707,-399.83594 c -2.5979,-22.05983 -17.8815,-40.09375 -40.0937,-40.09375 h -0.5801 c -1.083,-96.76134 0.2377,-199.80067 -1.2656,-289.00585 10.5872,-6.5497 26.5273,-10.0213 26.5273,-22.4707 V 66.813653 c 0,-12.4495 -10.0213,-22.4707 -22.4707,-22.4707 z m 335.17576,31.4765 a 5.6692911,5.6692911 0 0 1 0.096,0 5.6692911,5.6692911 0 0 1 5.6699,5.668 5.6692911,5.6692911 0 0 1 -5.6699,5.6699 5.6692911,5.6692911 0 0 1 -5.6699,-5.6699 5.6692911,5.6692911 0 0 1 5.5742,-5.668 z m -296.80666,1 a 5.6692916,5.6692916 0 0 1 0.098,0 5.6692916,5.6692916 0 0 1 5.668,5.67 5.6692916,5.6692916 0 0 1 -5.668,5.6699 5.6692916,5.6692916 0 0 1 -5.6699,-5.6699 5.6692916,5.6692916 0 0 1 5.5722,-5.67 z m 148.25196,14.8204 h 0.029 c 67.8399,-7e-4 122.8355,54.993997 122.8359,122.833897 7e-4,67.84071 -54.9952,122.83662 -122.8359,122.83594 -67.83996,-3.6e-4 -122.83466,-54.99597 -122.83396,-122.83594 4e-4,-67.8277 54.9769,-122.817397 122.80466,-122.833897 z m -86.17766,11.261697 h 0.01 c 3.6537,-6e-4 6.6158,2.9615 6.6152,6.6152 -5e-4,3.653 -2.9623,6.6139 -6.6152,6.6133 -3.6522,-5e-4 -6.6128,-2.9611 -6.6133,-6.6133 -6e-4,-3.6499 2.9555,-6.6104 6.6055,-6.6152 z m 167.94916,0 v 0 h 0.01 c 3.6537,-6e-4 6.6159,2.9615 6.6153,6.6152 -5e-4,3.653 -2.9623,6.6139 -6.6153,6.6133 -3.6522,-5e-4 -6.6127,-2.9611 -6.6132,-6.6133 -6e-4,-3.6493 2.9545,-6.6094 6.6035,-6.6152 z m 43.0273,221.1308 h 0.01 c 3.6522,4.8e-4 6.6128,2.96106 6.6133,6.61328 6e-4,3.65298 -2.9603,6.61475 -6.6133,6.61523 -3.6537,5.7e-4 -6.6158,-2.96151 -6.6152,-6.61523 5e-4,-3.64913 2.9563,-6.60844 6.6054,-6.61328 z m -211.41786,0.006 h 0.01 c 3.6537,-5.9e-4 6.6158,2.96149 6.6152,6.61523 -5e-4,3.65297 -2.9623,6.61387 -6.6152,6.61328 -3.6522,-4.9e-4 -6.6128,-2.96107 -6.6133,-6.61328 -6e-4,-3.64992 2.9555,-6.61043 6.6055,-6.61523 z m 36.375,533.10156 a 3.7795274,3.7795274 0 0 1 0.053,0 3.7795274,3.7795274 0 0 1 3.7793,3.7793 3.7795274,3.7795274 0 0 1 -3.7793,3.77929 3.7795274,3.7795274 0 0 1 -3.7793,-3.77929 3.7795274,3.7795274 0 0 1 3.7266,-3.7793 z m 105.24406,1.59375 a 3.7795276,3.7795276 0 0 1 0.053,0 3.7795276,3.7795276 0 0 1 3.7793,3.7793 3.7795276,3.7795276 0 0 1 -3.7793,3.77929 3.7795276,3.7795276 0 0 1 -3.7793,-3.77929 3.7795276,3.7795276 0 0 1 3.7266,-3.7793 z m -243.09176,34.2793 a 5.6692911,5.6692911 0 0 1 0.098,0 5.6692911,5.6692911 0 0 1 5.6699,5.66992 5.6692911,5.6692911 0 0 1 -5.6699,5.66992 5.6692911,5.6692911 0 0 1 -5.67,-5.66992 5.6692911,5.6692911 0 0 1 5.5723,-5.66992 z m 376.58786,0 a 5.6692907,5.6692907 0 0 1 0.096,0 5.6692907,5.6692907 0 0 1 5.6699,5.66992 5.6692907,5.6692907 0 0 1 -5.6699,5.66992 5.6692907,5.6692907 0 0 1 -5.668,-5.66992 5.6692907,5.6692907 0 0 1 5.5723,-5.66992 z m -186.2539,48.55074 a 3.7795274,3.7795274 0 0 1 3.7793,3.7813 3.7795274,3.7795274 0 0 1 -3.7793,3.7793 3.7795274,3.7795274 0 0 1 -3.7793,-3.7793 3.7795274,3.7795274 0 0 1 3.7793,-3.7813 z" />
    <path
       id="rect2340-8"
       style="fill:#0000ff;fill-opacity:1;stroke:none;stroke-width:3.29453;stroke-linejoin:round;stroke-opacity:1"
       d="m 363.14654,962.30776 c -12.4495,0 -22.4727,-10.02127 -22.4727,-22.47071 V 779.41127 c 0,-12.44944 10.0232,-22.4707 22.4727,-22.4707 h 3.0918 V 524.36635 h -0.022 c -22.2122,0 -37.4978,-18.03394 -40.0957,-40.09375 l -34.332,-399.224607 c -2.5978,-22.0597 17.8837,-39.9596 40.0957,-40.0938 l 439.3828,-2.6484 c 22.2118,-0.1339 42.9123,18.4755 40.3144,40.53517 L 778.05814,484.2726 c -2.5979,22.05981 -17.8816,40.09375 -40.0938,40.09375 h -0.5801 v 82.00976 l -35.8808,32.90235 0.1445,150.25781 38.5274,23.83594 c 10.5872,6.54977 22.4707,10.02126 22.4707,22.4707 v 103.99414 c 0,12.44944 -10.0213,22.47071 -22.4707,22.47071 z m 335.1757,-31.47657 a 5.6692908,5.6692908 0 0 0 0.096,0 5.6692908,5.6692908 0 0 0 5.67,-5.66797 5.6692908,5.6692908 0 0 0 -5.67,-5.66992 5.6692908,5.6692908 0 0 0 -5.6699,5.66992 5.6692908,5.6692908 0 0 0 5.5742,5.66797 z m -296.7089,-1 a 5.6692908,5.6692908 0 0 0 5.668,-5.66992 5.6692908,5.6692908 0 0 0 -5.668,-5.66992 5.6692908,5.6692908 0 0 0 -5.6699,5.66992 5.6692908,5.6692908 0 0 0 5.6699,5.66992 z m 148.7324,-5.45312 c 73.0579,-1.5e-4 132.283,-59.22527 132.2832,-132.2832 -2e-4,-73.05796 -59.2253,-132.28306 -132.2832,-132.28321 -73.0587,-9.6e-4 -132.285,59.22447 -132.2851,132.28321 1e-4,73.05871 59.2264,132.28416 132.2851,132.2832 z m 1.5664,-355.13086 a 54.803155,54.803155 0 0 0 0.1778,0 54.803155,54.803155 0 0 0 54.8027,-54.80274 54.803155,54.803155 0 0 0 -54.8027,-54.80273 54.803155,54.803155 0 0 0 -54.8028,54.80273 54.803155,54.803155 0 0 0 54.625,54.80274 z M 413.51764,436.85463 a 54.803152,54.803152 0 0 0 0.1777,0 54.803152,54.803152 0 0 0 54.8047,-54.80273 54.803152,54.803152 0 0 0 -54.8047,-54.80469 54.803152,54.803152 0 0 0 -54.8027,54.80469 54.803152,54.803152 0 0 0 54.625,54.80273 z m 136.3945,0 a 54.803152,54.803152 0 0 0 0.1778,0 54.803152,54.803152 0 0 0 54.8027,-54.80273 54.803152,54.803152 0 0 0 -54.8027,-54.80469 54.803152,54.803152 0 0 0 -54.8028,54.80469 54.803152,54.803152 0 0 0 54.625,54.80273 z m 136.3926,0 a 54.803152,54.803152 0 0 0 0.1796,0 54.803152,54.803152 0 0 0 54.8028,-54.80273 54.803152,54.803152 0 0 0 -54.8028,-54.80469 54.803152,54.803152 0 0 0 -54.8046,54.80469 54.803152,54.803152 0 0 0 54.625,54.80273 z m -272.7871,-140 a 54.803148,54.803148 0 0 0 0.1777,0 54.803148,54.803148 0 0 0 54.8047,-54.80273 54.803148,54.803148 0 0 0 -54.8047,-54.80469 54.803148,54.803148 0 0 0 -54.8027,54.80469 54.803148,54.803148 0 0 0 54.625,54.80273 z m 136.3945,0 a 54.803148,54.803148 0 0 0 0.1778,0 54.803148,54.803148 0 0 0 54.8027,-54.80273 54.803148,54.803148 0 0 0 -54.8027,-54.80469 54.803148,54.803148 0 0 0 -54.8028,54.80469 54.803148,54.803148 0 0 0 54.625,54.80273 z m 136.3926,0 a 54.803148,54.803148 0 0 0 0.1796,0 54.803148,54.803148 0 0 0 54.8028,-54.80273 54.803148,54.803148 0 0 0 -54.8028,-54.80469 54.803148,54.803148 0 0 0 -54.8046,54.80469 54.803148,54.803148 0 0 0 54.625,54.80273 z m -324.6289,-183.2168 a 5.6692911,5.6692911 0 0 0 0.098,0 5.6692911,5.6692911 0 0 0 5.6699,-5.66992 5.6692911,5.6692911 0 0 0 -5.6699,-5.66992 5.6692911,5.6692911 0 0 0 -5.6699,5.66992 5.6692911,5.6692911 0 0 0 5.5722,5.66992 z m 376.5878,0 a 5.6692911,5.6692911 0 0 0 0.096,0 5.6692911,5.6692911 0 0 0 5.67,-5.66992 5.6692911,5.6692911 0 0 0 -5.67,-5.66992 5.6692911,5.6692911 0 0 0 -5.6679,5.66992 5.6692911,5.6692911 0 0 0 5.5722,5.66992 z" />
    <path
       d="m -98.768007,251.07813 c -12.449403,0 -22.474603,10.02128 -22.474603,22.47071 v 160.42578 c 0,12.44944 10.0252,22.4707 22.474603,22.4707 h 59.291 c -3.1228,-11.39386 -4.7052,-23.1547 -4.705,-34.96875 10e-5,-73.05793 59.2253,-132.28305 132.2832,-132.2832 73.057947,1.5e-4 132.283147,59.22527 132.283247,132.2832 -5e-4,11.81415 -1.5836,23.57499 -4.7071,34.96875 h 24.6797 v -32.66406 l 38.2149,-24.27539 c 10.5083,-6.67556 22.4707,-10.02126 22.4707,-22.4707 V 273.54884 c 0,-12.44943 -10.0213,-22.47071 -22.4707,-22.47071 z m 5.8223,21.25586 c 3.4234,0 6.1797,2.75627 6.1797,6.17969 v 103.39649 c 0,3.42342 -2.7563,6.17968 -6.1797,6.17968 -3.4235,0 -6.1797,-2.75626 -6.1797,-6.17968 V 278.51368 c 0,-3.42342 2.7562,-6.17969 6.1797,-6.17969 z m 26.123,0 h 12.3594 c 4.4015,0 7.9453,3.54378 7.9453,7.94532 v 99.86523 c 0,4.40154 -3.5438,7.94531 -7.9453,7.94531 h -12.3594 c -4.4016,0 -7.9433,-3.54377 -7.9433,-7.94531 v -99.86523 c 0,-4.40154 3.5417,-7.94532 7.9433,-7.94532 z m 42.0411,0 H 0.81989294 c 3.17879996,0 5.70559996,2.55957 5.73829996,5.73828 l 0.3125,30.34571 c -11.2523,8.56124 -25.2941999,19.50303 -37.3905999,39.44531 v -69.79102 c 0,-3.17888 2.5593,-5.73828 5.7383,-5.73828 z m 199.703147,0 h 25.6015 c 3.1791,0 5.7383,2.5594 5.7383,5.73828 v 69.49024 c -12.3595,-18.6862 -24.9095,-30.19587 -37.3906,-39.43945 l 0.3125,-30.05079 c 0.033,-3.1787 2.5595,-5.73828 5.7383,-5.73828 z m 55.2832,0 h 12.3594 c 4.4015,0 7.9453,3.54378 7.9453,7.94532 v 99.86523 c 0,4.40154 -3.5438,7.94531 -7.9453,7.94531 h -12.3594 c -4.4016,0 -7.9453,-3.54377 -7.9453,-7.94531 v -99.86523 c 0,-4.40154 3.5437,-7.94532 7.9453,-7.94532 z m 38.4844,0 c 3.4234,0 6.1797,2.75627 6.1797,6.17969 v 103.39649 c 0,3.42342 -2.7563,6.17968 -6.1797,6.17968 -3.4234,0 -6.1797,-2.75626 -6.1797,-6.17968 V 278.51368 c 0,-3.42342 2.7563,-6.17969 6.1797,-6.17969 z"
       style="fill:#00ff00;fill-opacity:1;stroke:none;stroke-width:3.99093;stroke-linejoin:round;stroke-opacity:1"
       id="rect2364-2-8" />
    <path
       id="rect2364-2-6"
       style="fill:#00ff00;fill-opacity:1;stroke:none;stroke-width:5.91403;stroke-linejoin:round;stroke-opacity:1"
       d="m 150.76604,478.61218 c 0.5758,3.77284 0.24,7.74011 0.2402,11.55664 0,27.95504 -15.42836,53.62777 -40.11326,66.74804 13.3649,7.62971 24.0826,19.15694 30.7207,33.04102 12.55746,-26.26624 39.08356,-42.98625 68.19726,-42.98633 41.7469,3.9e-4 75.5894,33.84288 75.5898,75.58984 1e-4,30.73001 -18.6033,58.40163 -47.0605,70 28.4572,11.59837 47.0606,39.27 47.0605,70 7e-4,41.74773 -33.8421,75.59142 -75.5898,75.5918 -29.1137,-8e-5 -55.6398,-16.72009 -68.19726,-42.98633 -12.5575,26.26625 -39.08357,42.98625 -68.197257,42.98633 -29.11343,-10e-4 -55.63868,-16.72191 -68.1953201,-42.98828 -12.55725,26.26764 -39.0843799,42.9886 -68.1992099,42.98828 -41.747733,-3.8e-4 -75.590553,-33.84407 -75.589853,-75.5918 0.001,-30.73024 18.6064,-58.40117 47.064453,-69.99804 -28.459373,-11.59741 -47.064693,-39.27028 -47.064453,-70.00196 3.9e-4,-41.74696 33.84288,-75.58945 75.589853,-75.58984 29.11369,8e-5 55.6397499,16.72008 68.1972599,42.98633 C 12.193733,575.37039 23.662053,563.40371 37.939853,555.8153 14.372843,542.36089 -0.17362706,517.30597 -0.17342706,490.16882 c -2.6e-4,-3.71891 -0.66162,-7.12028 -0.11523,-10.79883 -33.17276994,0.3069 -66.16611994,0.36592 -109.91602294,0.58398 -22.2122,0.016 -37.4978,18.03386 -40.0957,40.09375 l -35.03125,399.95899 c -2.5978,22.05982 19.20816,40.67772 41.41992,40.75592 l 438.94135,1.5449 c 22.2121,0.078 42.9124,-19.5789 40.3145,-41.63871 l -33.709,-400.6211 c -2.5979,-22.05989 -17.8816,-40.09375 -40.0938,-40.09375 -43.9823,-0.61955 -79.4008,-1.14037 -110.7753,-1.34179 z m -265.23048,404.80468 a 13.228346,13.228346 0 0 1 13.22851,13.22852 13.228346,13.228346 0 0 1 -13.22851,13.22851 13.228346,13.228346 0 0 1 -13.22852,-13.22851 13.228346,13.228346 0 0 1 13.22852,-13.22852 z m 376.58588,0 a 13.228345,13.228345 0 0 1 13.2285,13.22852 13.228345,13.228345 0 0 1 -13.2285,13.22851 13.228345,13.228345 0 0 1 -13.2285,-13.22851 13.228345,13.228345 0 0 1 13.2285,-13.22852 z" />
    <path
       id="path1308"
       style="fill:#808000;fill-opacity:1;stroke:none;stroke-width:1.04025;stroke-linejoin:round;stroke-opacity:1"
       d="m -55.331637,596.9071 a 22.677167,22.677167 0 0 0 -22.67773,22.67773 22.677167,22.677167 0 0 0 22.67773,22.67774 22.677167,22.677167 0 0 0 5.18164,-0.60156 l 39.43946,39.43945 v 58.3457 21.26953 l -18.89649,18.89649 v 26.00586 h 18.89649 V 787.4403 l 35.72071,-35.7207 h 58.3457 66.171867 l 43.3437,-43.34375 a 22.677167,22.677167 0 0 0 10.3457,2.5 22.677167,22.677167 0 0 0 22.6778,-22.67578 22.677167,22.677167 0 0 0 -22.6778,-22.67774 22.677167,22.677167 0 0 0 -22.6777,22.67774 22.677167,22.677167 0 0 0 0.6016,5.18164 l -39.43947,39.43945 h -58.345697 -66.1719 l -8.9960801,8.99609 v -2.37109 -66.17187 L -35.155857,629.93054 a 22.677167,22.677167 0 0 0 2.5,-10.34571 22.677167,22.677167 0 0 0 -22.67578,-22.67773 z m -0.10937,13.22851 a 9.44882,9.44882 0 0 1 0.10937,0 9.44882,9.44882 0 0 1 9.44727,9.44922 9.44882,9.44882 0 0 1 -9.44727,9.44922 9.44882,9.44882 0 0 1 -9.44922,-9.33984 9.44882,9.44882 0 0 1 0,-0.10938 9.44882,9.44882 0 0 1 9.33985,-9.44922 z m 258.548847,68.61524 a 9.44882,9.44882 0 0 1 0.1093,0 9.44882,9.44882 0 0 1 9.4492,9.44922 9.44882,9.44882 0 0 1 -9.4492,9.44726 9.44882,9.44882 0 0 1 -9.4492,-9.44726 9.44882,9.44882 0 0 1 9.3399,-9.44922 z M 8.1878929,791.64538 c -0.88251,1.04538 -1.66512,1.97305 -2.96679,3.51953 1.02484,-0.70851 2.00699,-1.45772 2.96679,-2.2168 z" />
    <path
       id="rect1328-9-1-8"
       style="fill:#008000;fill-opacity:1;stroke:none;stroke-width:0.831015;stroke-linejoin:round;stroke-opacity:1"
       d="m 190.30164,584.22232 a 9.5193507,9.5193507 0 0 0 -9.1816,7.01172 c -0.065,-0.003 -0.1307,-0.004 -0.1953,-0.008 v 0.88086 a 9.5193507,9.5193507 0 0 0 -0.1426,1.63477 9.5193507,9.5193507 0 0 0 0.1426,1.6289 v 17.92774 l -18.4707,18.46875 h -11.2461 a 22.677167,22.677167 0 0 0 -20.55665,-13.10352 22.677167,22.677167 0 0 0 -22.6777,22.67774 22.677167,22.677167 0 0 0 22.6777,22.67578 22.677167,22.677167 0 0 0 20.67185,-13.35157 h 18.957 l 29.541,-29.54101 v -27.38281 -2.62305 c -0.1269,-0.0146 -0.2539,-0.0282 -0.3808,-0.043 a 9.5193507,9.5193507 0 0 0 -9.1387,-6.85352 z m -59.75975,47.66993 a 9.44882,9.44882 0 0 1 0.1094,0 9.44882,9.44882 0 0 1 9.4492,9.44922 9.44882,9.44882 0 0 1 -9.4492,9.44726 9.44882,9.44882 0 0 1 -9.4492,-9.44726 9.44882,9.44882 0 0 1 9.3398,-9.44922 z" />
    <path
       id="path1308-6"
       style="fill:#808000;fill-opacity:1;stroke:none;stroke-width:1.04025;stroke-linejoin:round;stroke-opacity:1"
       d="m 79.840963,673.94611 a 22.677167,22.677167 0 0 0 -6.79452,-31.3432 22.677167,22.677167 0 0 0 -4.68268,-2.29871 l -5.10453,-23.54717 -6.71202,-30.96258 31.57955,-49.0607 35.815437,-55.64142 -7.12109,-32.84944 -5.86529,-27.05646 a 22.677167,22.677167 0 0 0 7.70176,-7.34619 22.677167,22.677167 0 0 0 -6.7929,-31.34209 22.677167,22.677167 0 0 0 -31.343127,6.79457 22.677167,22.677167 0 0 0 0.0676,24.65323 l -2.76119,4.28973 0.0638,0.0415 c 0.93828,-1.37635 1.88538,-2.74617 2.84262,-4.10955 a 22.677167,22.677167 0 0 0 6.58142,6.46851 22.677167,22.677167 0 0 0 4.68268,2.29876 l 6.90161,31.83712 4.914937,22.67257 -31.579537,49.06068 -35.81548,55.64147 10.17926,46.95668 2.80709,12.94924 a 22.677167,22.677167 0 0 0 -7.70176,7.3462 22.677167,22.677167 0 0 0 6.79294,31.34207 22.677167,22.677167 0 0 0 31.34314,-6.79454 z m -11.06415,-7.25191 a 9.44882,9.44882 0 0 1 -0.059,0.0921 9.44882,9.44882 0 0 1 -13.05986,2.8311 9.44882,9.44882 0 0 1 -2.82949,-13.0588 9.44882,9.44882 0 0 1 13.05828,-2.83224 9.44882,9.44882 0 0 1 2.89029,12.96795 z M 107.59237,406.59001 a 9.44882,9.44882 0 0 1 -0.058,0.0904 9.44882,9.44882 0 0 1 -13.058227,2.83218 9.44882,9.44882 0 0 1 -2.89027,-12.96788 9.44882,9.44882 0 0 1 0.0633,-0.0896 9.44882,9.44882 0 0 1 13.059827,-2.83113 9.44882,9.44882 0 0 1 2.88761,12.96849 z"
       inkscape:transform-center-x="7.1890781"
       inkscape:transform-center-y="10.398665" />
  </g>
</svg>
