<?xml version="1.0" encoding="UTF-8" standalone="no"?>
<svg
   xmlns:dc="http://purl.org/dc/elements/1.1/"
   xmlns:cc="http://creativecommons.org/ns#"
   xmlns:rdf="http://www.w3.org/1999/02/22-rdf-syntax-ns#"
   xmlns:svg="http://www.w3.org/2000/svg"
   xmlns="http://www.w3.org/2000/svg"
   xmlns:sodipodi="http://sodipodi.sourceforge.net/DTD/sodipodi-0.dtd"
   xmlns:inkscape="http://www.inkscape.org/namespaces/inkscape"
   width="406.39999mm"
   height="304.79999mm"
   viewBox="0 0 406.40001 304.80001"
   version="1.1"
   id="svg1559"
   inkscape:version="1.0 (4035a4fb49, 2020-05-01)"
   sodipodi:docname="V3.3.svg">
  <defs
     id="defs1553" />
  <sodipodi:namedview
     inkscape:bbox-nodes="true"
     inkscape:snap-bbox-midpoints="true"
     inkscape:snap-bbox="true"
     inkscape:snap-others="false"
     inkscape:snap-object-midpoints="true"
     inkscape:snap-nodes="true"
     inkscape:snap-center="true"
     units="mm"
     id="base"
     pagecolor="#ffffff"
     bordercolor="#666666"
     borderopacity="1.0"
     inkscape:pageopacity="0.0"
     inkscape:pageshadow="2"
     inkscape:zoom="0.35355339"
     inkscape:cx="581.39653"
     inkscape:cy="689.48924"
     inkscape:document-units="mm"
     inkscape:current-layer="layer1"
     inkscape:document-rotation="0"
     showgrid="false"
     inkscape:snap-global="false"
     inkscape:window-width="1600"
     inkscape:window-height="837"
     inkscape:window-x="-8"
     inkscape:window-y="-8"
     inkscape:window-maximized="1" />
  <metadata
     id="metadata1556">
    <rdf:RDF>
      <cc:Work
         rdf:about="">
        <dc:format>image/svg+xml</dc:format>
        <dc:type
           rdf:resource="http://purl.org/dc/dcmitype/StillImage" />
        <dc:title />
      </cc:Work>
    </rdf:RDF>
  </metadata>
  <g
     inkscape:label="Layer 1"
     inkscape:groupmode="layer"
     id="layer1">
    <path
       transform="scale(0.26458333)"
       d="M 1112.2559 213.78125 L 866.43555 355.70703 L 866.43555 535.01758 C 866.37356 545.30987 866.35769 555.57473 866.43555 565.79102 L 866.43555 616.41016 C 862.10504 690.8306 830.23371 770.70554 752.73242 859.81055 L 1112.0254 1067.248 L 1471.3164 859.81055 C 1396.1736 773.12765 1360.7089 685.9173 1358.0742 598.26953 L 1358.0742 355.70703 L 1112.2559 213.78125 z M 1112.2051 289.21875 C 1112.2391 289.21847 1112.2699 289.21847 1112.3027 289.21875 C 1115.4342 289.21841 1117.973 291.75712 1117.9727 294.88867 C 1117.973 298.02022 1115.4342 300.55893 1112.3027 300.55859 C 1109.1712 300.55893 1106.6325 298.02022 1106.6328 294.88867 C 1106.632 291.79489 1109.1118 289.27173 1112.2051 289.21875 z M 937.05469 444.63281 L 955.94336 444.63281 L 955.94336 482.41797 L 937.05469 482.41797 L 937.05469 444.63281 z M 1268.0488 444.6582 L 1286.9375 444.6582 L 1286.9375 482.44336 L 1268.0488 482.44336 L 1268.0488 444.6582 z M 894.25391 492.80859 L 913.15234 492.80859 L 913.15234 549.50195 L 894.25391 549.50195 L 894.25391 492.80859 z M 1310.0879 492.85742 L 1328.9863 492.85742 L 1328.9863 549.55078 L 1310.0879 549.55078 L 1310.0879 492.85742 z M 1078.4062 536.63281 C 1082.0585 536.6333 1085.019 539.59386 1085.0195 543.24609 C 1085.0201 546.89908 1082.0592 549.86084 1078.4062 549.86133 C 1074.7571 549.86193 1071.7986 546.90698 1071.791 543.25781 L 1071.791 543.24609 C 1071.7915 539.5931 1074.7533 536.63221 1078.4062 536.63281 z M 1184.123 536.63281 C 1187.7752 536.6333 1190.7358 539.5939 1190.7363 543.24609 C 1190.7369 546.89904 1187.776 549.86084 1184.123 549.86133 L 1184.123 549.86328 C 1180.4739 549.86389 1177.5154 546.90894 1177.5078 543.25977 L 1177.5078 543.25781 L 1177.5078 543.24609 C 1177.5083 539.5931 1180.4701 536.63221 1184.123 536.63281 z M 1150.0703 557.83008 L 1187.8672 557.83008 L 1187.8672 576.72852 L 1150.0703 576.72852 L 1150.0703 557.83008 z M 1036.8379 557.83789 L 1074.6328 557.83789 L 1074.6328 576.73438 L 1036.8379 576.73438 L 1036.8379 557.83789 z M 937.05664 557.86523 L 955.94531 557.86523 L 955.94531 595.65039 L 937.05664 595.65039 L 937.05664 557.86523 z M 1268.0508 557.89062 L 1286.9414 557.89062 L 1286.9414 595.67578 L 1268.0508 595.67578 L 1268.0508 557.89062 z M 1162.0039 566.30078 C 1161.652 566.36428 1161.2876 566.44356 1160.9277 566.51953 C 1160.958 566.56753 1160.9865 566.61449 1161.0156 566.66211 C 1161.4849 566.71918 1162.0199 566.7846 1162.5508 566.84961 C 1162.3682 566.66706 1162.186 566.48375 1162.0039 566.30078 z M 1082.127 602.04688 L 1083.3242 602.04688 C 1086.1334 602.04688 1088.3945 604.30809 1088.3945 607.11719 L 1088.3945 679.46484 C 1088.3945 682.27398 1086.1334 684.53516 1083.3242 684.53516 L 1082.127 684.53516 C 1079.3179 684.53516 1077.0568 682.27398 1077.0566 679.46484 L 1077.0566 607.11719 C 1077.0566 604.30817 1079.3179 602.04688 1082.127 602.04688 z M 1112.127 602.04688 L 1113.3242 602.04688 C 1116.1334 602.04688 1118.3945 604.30809 1118.3945 607.11719 L 1118.3945 679.46484 C 1118.3945 682.27398 1116.1334 684.53516 1113.3242 684.53516 L 1112.127 684.53516 C 1109.3179 684.53516 1107.0568 682.27398 1107.0566 679.46484 L 1107.0566 607.11719 C 1107.0566 604.30817 1109.3179 602.04688 1112.127 602.04688 z M 1142.127 602.04688 L 1143.3242 602.04688 C 1146.1334 602.04688 1148.3945 604.30809 1148.3945 607.11719 L 1148.3945 679.46484 C 1148.3945 682.27398 1146.1334 684.53516 1143.3242 684.53516 L 1142.127 684.53516 C 1139.3179 684.53516 1137.0568 682.27398 1137.0566 679.46484 L 1137.0566 607.11719 C 1137.0566 604.30817 1139.3179 602.04688 1142.127 602.04688 z M 894.25586 639.54297 L 913.1543 639.54297 L 913.1543 696.23633 L 894.25586 696.23633 L 894.25586 639.54297 z M 1310.0898 639.58984 L 1328.9883 639.58984 L 1328.9883 696.2832 L 1310.0898 696.2832 L 1310.0898 639.58984 z M 774.50195 693.08008 C 774.11958 692.86087 773.26442 696.80042 774.62891 693.61719 C 774.60245 693.32012 774.5628 693.1153 774.50195 693.08008 z M 772.50977 699.5918 C 772.41566 699.67117 772.3571 700.31333 772.3125 701.12695 C 772.45915 700.8227 772.60732 700.51738 772.75 700.21094 C 772.65589 699.73407 772.57591 699.53616 772.50977 699.5918 z M 1019.7461 727.35352 C 1023.3998 727.35295 1026.3619 730.31501 1026.3613 733.96875 C 1026.3608 737.62174 1023.3991 740.5826 1019.7461 740.58203 L 1019.7461 740.58398 C 1016.0977 740.58349 1013.1404 737.62885 1013.1328 733.98047 L 1013.1328 733.96875 C 1013.1322 730.3158 1016.0931 727.35401 1019.7461 727.35352 z M 1200.9102 731.7793 C 1204.5624 731.77979 1207.5229 734.74038 1207.5234 738.39258 C 1207.524 742.04553 1204.5631 745.00732 1200.9102 745.00781 L 1200.9102 745.00977 C 1197.2602 745.01037 1194.2987 742.05422 1194.2949 738.4043 L 1194.2949 738.39258 C 1194.2954 734.73963 1197.2572 731.77873 1200.9102 731.7793 z M 1162.0176 745.24023 L 1184.7207 745.24023 C 1185.8397 749.94446 1189.6813 753.85814 1195.4453 755.47461 L 1195.4453 801.23242 L 1162.0176 801.23242 L 1162.0176 745.24023 z M 1045.7656 753.59766 L 1089.2227 753.59766 L 1089.2227 815.02148 L 1045.7656 815.02148 L 1045.7656 753.59766 z M 998.9043 798.74805 L 1017.8008 798.74805 L 1017.8008 836.54102 L 998.9043 836.54102 L 998.9043 798.74805 z M 1206.7617 798.7793 L 1225.6582 798.7793 L 1225.6582 836.57617 L 1206.7617 836.57617 L 1206.7617 798.7793 z M 1258.3184 833.01172 L 1296.1133 833.01172 L 1296.1133 851.91016 L 1258.3184 851.91016 L 1258.3184 833.01172 z M 1333.7988 833.01172 L 1371.5938 833.01172 L 1371.5938 851.91016 L 1333.7988 851.91016 L 1333.7988 833.01172 z M 1277.1934 890.02344 L 1296.0898 890.02344 L 1296.0898 927.81836 L 1277.1934 927.81836 L 1277.1934 890.02344 z M 1031 897.99023 L 1031.002 897.99023 L 1031.0137 897.99023 C 1034.6668 897.99076 1037.6276 900.95451 1037.627 904.60742 C 1037.6265 908.25962 1034.6659 911.22017 1031.0137 911.2207 C 1027.3608 911.22138 1024.3986 908.26037 1024.3984 904.60742 C 1024.3978 900.95882 1027.3519 897.99715 1031 897.99023 z M 1193.4844 898.13281 L 1193.4863 898.13281 L 1193.498 898.13281 C 1197.1509 898.13228 1200.1131 901.09506 1200.1133 904.74805 C 1200.1139 908.40175 1197.1518 911.36377 1193.498 911.36328 C 1189.8452 911.36275 1186.8843 908.40104 1186.8848 904.74805 C 1186.885 901.10095 1189.8382 898.14083 1193.4844 898.13281 z M 998.9043 928.94727 L 1017.8008 928.94727 L 1017.8008 966.74609 L 998.9043 966.74609 L 998.9043 928.94727 z M 1206.7617 928.98047 L 1225.6582 928.98047 L 1225.6582 966.7793 L 1206.7617 966.7793 L 1206.7617 928.98047 z "
       style="fill:#000000;fill-opacity:1;stroke:none;stroke-width:1.00157;stroke-miterlimit:4;stroke-dasharray:none;stroke-opacity:1"
       id="path611-6" />
    <path
       id="path1142"
       style="fill:#008000;stroke-width:0.3;stroke-linejoin:round"
       inkscape:transform-center-x="2.2261707e-05"
       inkscape:transform-center-y="6.9679742e-06"
       d="m 226.46626,246.3854 -21.1341,12.20184 v 24.40368 l 21.1341,12.20184 21.13412,-12.20184 v -24.40368 z m -2.40245,13.93197 h 5.00023 v 10.00042 h -5.00023 z m -10.79158,0.32711 h 1.0759 c 0.62188,0 1.12241,0.50105 1.12241,1.12293 v 13.517 c 0,0.62189 -0.50053,1.12241 -1.12241,1.12241 h -1.0759 c -0.62188,0 -1.12242,-0.50052 -1.12242,-1.12241 v -13.517 c 0,-0.62188 0.50054,-1.12293 1.12242,-1.12293 z m 25.96483,19.10994 a 1.75,1.75 0 0 1 0.003,0 1.75,1.75 0 0 1 1.74977,1.75028 1.75,1.75 0 0 1 -1.74977,1.74977 1.75,1.75 0 0 1 -1.75027,-1.74977 1.75,1.75 0 0 1 1.74718,-1.75028 z m -25.585,0.14211 a 1.75,1.75 0 0 1 0.003,0 1.75,1.75 0 0 1 1.74977,1.75028 1.75,1.75 0 0 1 -1.74977,1.74977 1.75,1.75 0 0 1 -1.74974,-1.74977 1.75,1.75 0 0 1 1.74717,-1.75028 z m 10.40194,0.47698 h 4.9997 v 5.00021 h -4.9997 z" />
    <path
       id="path3215"
       style="fill:#808000;stroke-width:0.3;stroke-linejoin:round"
       inkscape:transform-center-x="-1.1515617e-05"
       inkscape:transform-center-y="2.1340953e-06"
       d="m 293.82333,5.8488307 -95.13477,52.5445973 0.19792,5.715412 1.68776,5.959327 18.02525,-0.04496 5.09323,-0.01291 c 2.56831,0.150132 4.87762,1.656384 5.04362,4.857583 l 0.0186,4.398698 0.0476,11.117671 18.57612,-10.724413 v -4.852934 h 5.00022 v 1.966288 l 41.42951,-23.918436 41.20782,23.838338 v -1.866037 h 5.00021 v 4.758883 l 18.7141,10.825701 0.0517,-15.246103 c 0.0557,-2.79214 1.56999,-4.710453 4.80849,-5.113382 l 22.85442,0.05323 2.51354,-5.886979 V 58.393428 Z M 267.00274,22.909805 h 15.00012 v 5.000213 h -15.00012 z m 38.82347,0 h 15.00012 v 4.999694 h -15.00012 z m 19.03863,4.437973 10.60659,10.606588 -3.5357,3.535701 -10.60659,-10.606588 z m -62.07683,0.07234 3.53519,3.535185 -10.60659,10.606588 -3.53571,-3.535185 z m 72.14547,18.757511 h 5.00021 v 9.999908 h -5.00021 z m -87.5776,0.0062 h 5.00021 v 9.999906 h -5.00021 z m 104.96155,8.616011 10.60658,10.60659 -3.53518,3.535701 -10.6071,-10.607106 z m -116.98201,0.07287 3.5357,3.535183 -10.60658,10.607106 -3.53571,-3.535701 z" />
    <path
       sodipodi:nodetypes="ccccccccccccccccccccccccccsccccccsccscssscccss"
       d="m 203.89903,289.33834 h -4.99091 v 0.006 c -9.58281,-3.67842 -16.2058,-2.24437 -22.43533,-0.13074 l -3.85195,-4.6178 c 0.063,-24.65674 -0.0895,-26.47107 -0.0382,-49.93804 l -3.6587,-2.34353 0.3142,-44.60967 9.6485,-5.91747 v 0.0124 h 4.95888 v 9.99991 h -4.96404 l -0.0155,28.83492 c 5.82888,7.61987 12.51285,11.4307 20.04219,11.47579 v 17.20722 h 4.97644 v 9.99991 h -4.97644 v 20.02151 h 4.99091 z m -7.63054,-19.93315 c 7e-5,-0.008 7e-5,-0.0169 0,-0.0253 9e-5,-0.82835 -0.6713,-1.49997 -1.49965,-1.50016 -0.82856,-10e-5 -1.50026,0.67161 -1.50017,1.50016 1.9e-4,0.82836 0.67181,1.49975 1.50017,1.49965 0.81836,-7e-5 1.48564,-0.65608 1.49965,-1.47433 z m -0.92553,14.76138 v -5.00022 h -9.99991 v 5.00022 z m -4.485,-34.63872 c 2e-5,-0.007 2e-5,-0.0134 0,-0.0202 -1.6e-4,-2.76138 -2.23882,-4.99981 -5.00021,-4.99969 -2.76138,-1.2e-4 -5.00004,2.23831 -5.00021,4.99969 -1.2e-4,2.76159 2.23862,5.00033 5.00021,5.00021 2.75374,1.4e-4 4.98923,-2.22634 5.00021,-4.98005 z m -12.15429,19.90111 v -5.3e-4 c 7e-5,-0.008 7e-5,-0.0169 0,-0.0253 9e-5,-0.82855 -0.67161,-1.50026 -1.50017,-1.50016 -0.82835,1.9e-4 -1.49974,0.67181 -1.49965,1.50016 -9e-5,0.82836 0.6713,1.49998 1.49965,1.50017 0.81857,2.1e-4 1.48616,-0.65588 1.50017,-1.47433 z"
       style="fill:#800000;stroke-width:0.3;stroke-linejoin:round"
       id="path3306" />
    <path
       id="rect1285-8-2"
       style="fill:#00ffff;stroke-width:0.264583"
       d="m 218.98265,37.859317 h -0.0103 v -4.49998 -0.49919 h -0.0103 v -4.50051 h -0.0103 c -0.20224,-0.9629 -0.37709,-1.93286 -0.51986,-2.91196 0.13669,-0.84512 0.31442,-1.70191 0.54053,-2.57142 h 0.008 v -4.9997 h -0.0103 v -4.49946 -0.49971 h -0.0103 V 8.3773967 H 203.9597 v 4.9929803 h -23.81301 v -0.49299 h -0.0103 V 8.3773967 h -15.00063 v 4.9929803 h -0.008 c 0.007,0.0225 0.0122,0.0452 0.0186,0.0677 v 4.43229 h -0.008 c 0.003,0.0102 0.005,0.0203 0.008,0.0305 v 0.46922 h -0.008 c 0.007,0.0225 0.0117,0.0452 0.0181,0.0677 v 4.43229 h -0.008 c 0.23667,0.82468 0.42653,1.65307 0.57464,2.48512 -0.15542,1.0013 -0.35427,2.00639 -0.59531,3.0148 h 0.0109 v 4.49792 c -1.7e-4,6.9e-4 -3.5e-4,5.5e-4 -5.2e-4,0.002 h 5.2e-4 v 0.49041 h 0.002 c -7.8e-4,0.003 -0.001,0.006 -0.002,0.01 h 0.0109 v 4.49016 0.008 c -1.6e-4,7.9e-4 -2.5e-4,5.5e-4 -5.2e-4,0.002 h 5.2e-4 v 0.49041 h 0.0103 v 4.49999 h 15.00012 v -4.9904 h 23.81302 v 0.48989 h 0.0103 v 4.49999 h 8.55814 v 5.2e-4 h 6.43164 v -5.2e-4 h 0.0103 z" />
    <path
       id="path611-6-1"
       style="fill:#000000;fill-opacity:1;stroke:none;stroke-width:0.264999;stroke-miterlimit:4;stroke-dasharray:none;stroke-opacity:1"
       d="m 129.19626,163.99617 h -4.99608 v -23.82285 l 4.99555,-0.003 v -15.00274 h -4.99608 v -0.003 c -12.95178,3.8838 -30.070275,2.54127 -42.033595,0 h -0.0289 -4.99351 -0.004 -1.99731 v 14.99701 c 0.81002,0.003 10.82696,0.003 4.99713,0.003 v 23.8125 c 6.2048,0.0101 -4.23984,0.0109 -4.9966,0.0109 v 14.99857 c 2.33172,0 4.66174,0.003 6.99492,0.003 13.87345,-2.15574 30.037575,-3.46588 42.058915,0 v 0.004 h 4.9997 z m -0.30179,75.21865 h -4.9961 v -0.003 c -12.95178,3.88379 -30.070225,2.54127 -42.033575,0 h -0.0295 -4.99348 -0.004 -1.99732 v 14.99753 c 0.80984,0.003 10.82694,0.003 4.99711,0.003 v 23.81194 c 6.20485,0.0101 -4.23982,0.0114 -4.99658,0.0114 v 14.99857 c 2.33164,0 4.66172,0.003 6.99492,0.003 13.87356,-2.15577 30.037415,-3.46591 42.058925,0 v 0.004 h 4.9997 v -14.9996 h -4.9961 v -23.82279 h 4.9961 z m -0.18965,-57.44764 h -4.9961 v -0.003 c -12.95178,3.88379 -30.070225,2.54127 -42.033575,0 h -0.0295 -4.99348 -0.004 -1.99731 v 14.99754 c 0.80999,0.003 10.82693,0.003 4.99711,0.003 v 23.8125 c 6.20482,0.0101 -4.23982,0.0109 -4.99658,0.0109 v 14.99857 c 2.33164,0 4.66172,0.003 6.99492,0.003 13.87356,-2.15574 30.037445,-3.46591 42.058915,0 v 0.004 h 4.9997 v -14.99908 h -4.9961 v -23.82284 l 4.9961,-0.003 z M 117.7711,148.93042 v 6.05235 c 0,1.74977 -1.40867,3.15846 -3.15847,3.15846 -1.74976,0 -3.15846,-1.40869 -3.15846,-3.15846 v -6.05235 c 0,-1.74979 1.4087,-3.15846 3.15846,-3.15846 1.7498,0 3.15847,1.40867 3.15847,3.15846 z m -0.30126,114.04676 v 6.05234 c 0,1.74976 -1.40869,3.15844 -3.15846,3.15844 -1.7498,0 -3.15846,-1.40868 -3.15846,-3.15844 v -6.05234 c 0,-1.74977 1.40866,-3.15846 3.15846,-3.15846 1.74977,0 3.15846,1.40869 3.15846,3.15846 z m -0.18965,-57.44711 v 6.05234 c 0,1.7498 -1.40869,3.15846 -3.15846,3.15846 -1.7498,0 -3.15847,-1.40866 -3.15847,-3.15846 v -6.05234 c 0,-1.7498 1.40867,-3.15847 3.15847,-3.15847 1.74977,0 3.15846,1.40867 3.15846,3.15847 z m -0.66664,-33.01403 c 7e-5,0.008 7e-5,0.0167 0,0.0254 -1.9e-4,0.82834 -0.67181,1.49974 -1.50017,1.49966 -0.82814,-2.1e-4 -1.49944,-0.67153 -1.49965,-1.49966 -8e-5,-0.82841 0.6713,-1.49997 1.49965,-1.50016 0.81878,-1.8e-4 1.48643,0.65614 1.50017,1.47484 z m -0.30126,114.0452 c 5e-5,0.008 5e-5,0.0167 0,0.0254 -2.1e-4,0.82833 -0.67183,1.49974 -1.50019,1.49966 -0.82814,-2.2e-4 -1.49944,-0.67152 -1.49963,-1.49966 -1e-4,-0.82839 0.67128,-1.49998 1.49963,-1.50016 0.81878,-1.9e-4 1.48643,0.65611 1.50019,1.47484 z m -0.18965,-57.44709 c 5e-5,0.008 5e-5,0.0167 0,0.0254 -2.1e-4,0.8282 -0.67181,1.49974 -1.50019,1.49966 -0.82812,-2.1e-4 -1.49945,-0.67167 -1.49963,-1.49966 -1.1e-4,-0.82841 0.67127,-1.5 1.49963,-1.50016 0.81878,-2.1e-4 1.48643,0.65614 1.50019,1.47484 z m -0.81029,-64.05036 c -1.6e-4,4.6944 -3.80584,8.49987 -8.50027,8.49974 -4.69421,-1.6e-4 -8.499568,-3.80556 -8.499728,-8.49974 -1.3e-4,-4.69442 3.805308,-8.50008 8.499728,-8.50024 4.69464,-1.3e-4 8.5004,3.80563 8.50027,8.50024 z m -0.031,-26.01235 c -1.6e-4,4.69439 -3.80571,8.49992 -8.50027,8.49974 -4.69418,-1.1e-4 -8.499568,-3.80556 -8.499728,-8.49974 -1.3e-4,-4.69437 3.805338,-8.50016 8.499728,-8.50027 4.69477,-1.6e-4 8.5004,3.80566 8.50027,8.50027 z m -0.27027,140.05754 c -1.3e-4,4.6944 -3.8054,8.49988 -8.50027,8.49974 -4.69418,-1.6e-4 -8.499568,-3.80555 -8.499728,-8.49974 -1.6e-4,-4.69445 3.805338,-8.5001 8.499728,-8.50023 4.69509,-1.6e-4 8.5004,3.8056 8.50027,8.50023 z m -0.031,-26.01182 c -1.3e-4,4.69443 -3.80529,8.49943 -8.50024,8.49924 -4.69427,-1e-4 -8.499618,-3.80502 -8.499728,-8.49924 -1.6e-4,-4.69436 3.805308,-8.50016 8.499728,-8.50024 4.69514,-1.8e-4 8.50037,3.80566 8.50024,8.50024 z m -0.15864,-31.43526 c -1.4e-4,4.69442 -3.8054,8.49987 -8.50027,8.49974 -4.69416,-1.6e-4 -8.499545,-3.80553 -8.499725,-8.49974 -1.1e-4,-4.69445 3.805355,-8.50011 8.499725,-8.50027 4.69511,-1.3e-4 8.50043,3.80563 8.50027,8.50027 z m -0.031,-26.01238 c -1.6e-4,4.69442 -3.80529,8.49992 -8.50024,8.49974 -4.69424,-8e-5 -8.499645,-3.80553 -8.499725,-8.49974 -1.4e-4,-4.69434 3.805295,-8.50014 8.499725,-8.50024 4.69513,-1.6e-4 8.50037,3.80566 8.50024,8.50024 z m -14.73449,-64.36246 c 8e-5,0.82854 -0.671584,1.50026 -1.500181,1.50016 -0.828484,1e-4 -1.500254,-0.67162 -1.500154,-1.50016 -1e-4,-0.82857 0.67167,-1.50027 1.500154,-1.50019 0.828597,-8e-5 1.500261,0.67162 1.500181,1.50019 z m -0.301277,114.04572 c 8e-5,0.82857 -0.673017,1.5003 -1.500151,1.50016 -0.828537,1.4e-4 -1.500267,-0.67159 -1.500187,-1.50016 -8e-5,-0.82857 0.67165,-1.50021 1.500187,-1.50016 0.827134,-5e-5 1.500231,0.67159 1.500151,1.50016 z m -0.18965,-57.44764 c 8e-5,0.82857 -0.671644,1.50026 -1.500151,1.50016 -0.828597,1e-4 -1.500267,-0.67159 -1.500187,-1.50016 -8e-5,-0.82857 0.67159,-1.50024 1.500187,-1.50016 0.828507,-8e-5 1.500231,0.67159 1.500151,1.50016 z" />
    <path
       d="m 347.57318,257.77492 c -0.003,0.003 -0.006,0.004 -0.009,0.005 l -0.0165,11.5471 h -4.99554 c -0.42397,11.50967 0.20764,16.40991 0.10747,17.04081 h 4.88911 l 0.0181,11.34504 c 0.0122,0.022 0.0209,0.0441 0.031,0.0625 h 49.89978 c 0.054,-0.0737 0.0595,-0.0805 0.0749,-0.10078 l -0.0201,-11.30216 h 4.9997 v 0.091 c 0,-2.98196 0.0904,-10.07589 0.10128,-14.26012 0.007,-2.51055 -0.0153,-3.97354 -0.10181,-2.87268 h -4.9997 l 0.0186,-11.54556 c -0.005,-0.003 -0.007,-0.007 -0.0124,-0.0103 z m 5.93038,18.85157 a 1.5,1.5 0 0 1 0.0253,0 1.5,1.5 0 0 1 1.50016,1.49963 1.5,1.5 0 0 1 -1.50016,1.50019 1.5,1.5 0 0 1 -1.50019,-1.50019 1.5,1.5 0 0 1 1.47485,-1.49963 z m 37.99974,0 a 1.5,1.5 0 0 1 0.0253,0 1.5,1.5 0 0 1 1.50019,1.49963 1.5,1.5 0 0 1 -1.50019,1.50019 1.5,1.5 0 0 1 -1.49963,-1.50019 1.5,1.5 0 0 1 1.47431,-1.49963 z m -48.95204,9.74254 c 0.0586,0.10239 0.0913,0.0989 0.10697,0 z m 55.01008,11.38433 c -0.007,0 -0.0225,0.0143 -0.0341,0.0212 l 0.0429,-0.003 5.3e-4,-0.0129 c -0.003,0 -0.005,-0.005 -0.009,-0.005 z m 0.0114,0.0222 v 0.0852 h 0.007 c 0.006,-0.0355 0.0102,-0.0665 0.005,-0.0852 h -5e-4 z"
       style="fill:#00ff00;fill-opacity:1;stroke:none;stroke-width:0.264999;stroke-miterlimit:4;stroke-dasharray:none;stroke-opacity:1"
       id="path611-6-6" />
    <path
       id="path611-6-4-2"
       style="fill:#00ff00;fill-opacity:1;stroke:none;stroke-width:0.264999;stroke-miterlimit:4;stroke-dasharray:none;stroke-opacity:1"
       d="m 197.20981,169.67843 h 4.99971 v 0.0109 h 0.015 v -24.44405 h -0.006 v 0.0139 h -5.00022 v -9.99996 c 1.67996,0.0208 3.34453,-0.015 5.00641,-0.015 v -3.63804 c 1.48286,2.17243 12.65269,4.46521 19.07326,5.3e-4 v 1.58751 h 0.003 v -0.003 h 4.9997 v 10.00046 h -1.23456 v 0.003 h -3.76772 v 17.03368 h 4.99969 v 9.99993 h -1.23351 v 0.008 h -3.76721 v 1.05833 0.79375 c -12.95409,5.31664 -18.57705,14.77242 -19.07328,16.44419 l 4.2e-4,-8.84678 c -1.6682,-0.007 -3.33776,-0.007 -5.01468,-0.007 z m 7.84965,-17.44703 0.68937,2.22676 2.27272,0.51624 1.58337,-1.70998 -0.68885,-2.22623 -2.27272,-0.51677 z m 3.82509,5.40692 1.28106,4.13878 4.22456,0.96016 2.944,-3.17863 -1.28106,-4.13878 -4.22455,-0.96016 z m 1.88671,-8.12305 0.9803,3.40602 3.4401,0.8537 2.45928,-2.55233 -0.98082,-3.406 -3.4401,-0.8532 z"
       sodipodi:nodetypes="ccccccccccccccccccccccccccccccccccccccccccccccccccccc" />
    <path
       sodipodi:nodetypes="cccccccccccc"
       d="m 399.41693,239.90215 -10e-6,-9.94617 h 5.0002 v -9.99989 h -5.0002 v -10.05417 l -9.98957,-1e-5 -10e-6,-4.98831 -9.9999,-1e-5 v 4.98832 l -0.0103,1.7e-4 c 13.50387,11.40759 10.87904,28.87134 19.9998,30.00025 z"
       style="fill:#000000;fill-opacity:1;stroke:none;stroke-width:0.3;stroke-linejoin:round;stroke-opacity:1"
       id="rect2343" />
    <path
       d="m 384.10795,201.28771 c 1.38427,-8e-4 2.49854,-1.11564 2.49854,-2.50011 v -17.80511 h 10.00302 v 4.98729 h 10.00043 v -4.98729 l -4.55477,-5.11235 c -7.97349,-1.83292 -12.40139,-1.542 -12.37599,-11.49129 0.12308,-27.29479 0.2781,-54.04695 0.11525,-81.545901 h 0.0238 v -3.43958 h -0.0212 v -3.35277 h -10.0004 v 5.00021 h 0.0356 v 0.007 h -9.99268 v -2.10736 h -0.014 v -2.89957 h -9.9999 v 5.00021 h 0.0279 v 0.007 h -0.0682 c -0.97764,22.010881 20.97334,15.213268 21.81987,59.452671 l 0.003,0.34417 v 57.94267 c 0,1.38447 1.11427,2.49929 2.49857,2.50011 v 0 z m 0.69503,-100.16237 h -5.0002 V 91.124944 h 5.0002 z"
       style="fill:#000000;fill-opacity:1;stroke:none;stroke-width:0.3;stroke-linejoin:round;stroke-opacity:1"
       id="rect2339-4" />
    <path
       id="path2589"
       d="m 274.86794,296.89697 v -2.47341 h -10.65468 -10.65468 v -1.90262 -1.90264 h -2.47341 -2.47341 v -4.75655 -4.75655 h 2.47341 2.47341 v -4.37602 -4.37605 l 10.74981,0.008 10.74981,0.008 5.13708,6.44488 5.13707,6.44488 9.38924,0.0159 9.38922,0.0159 5.26095,-6.44911 5.26097,-6.44912 10.55955,-0.0198 10.55955,-0.0198 v 4.37605 4.37602 h 2.4734 2.47343 v 4.75655 4.75654 h -2.47343 -2.4734 v 1.90265 1.90262 h -10.65467 -10.65469 v 2.4734 2.47341 h -4.75654 -4.75655 v -2.47341 -2.4734 h -10.27417 -10.27417 v 2.4734 2.47341 h -4.75654 -4.75656 z"
       style="fill:#000000;fill-opacity:1;stroke:none;stroke-width:0.3;stroke-linejoin:round;stroke-opacity:1" />
    <path
       id="path3306-2"
       style="fill:#800000;stroke-width:0.3;stroke-linejoin:round"
       d="m 132.69977,301.08256 h 4.99091 v 0.006 c 9.58281,-3.67842 16.2058,-2.24437 22.43533,-0.13074 l 3.85195,-4.6178 c -0.063,-24.65674 0.0895,-26.47107 0.0382,-49.93804 l 3.6587,-2.34353 -0.3142,-44.60967 -9.6485,-5.91747 v 0.0124 h -4.95888 v 9.99991 h 4.96404 l 0.0155,28.83492 c -5.82888,7.61987 -12.51285,11.4307 -20.04219,11.47579 v 17.20722 h -4.97644 v 9.99991 h 4.97644 v 20.02151 h -4.99091 z m 7.63054,-19.93315 c -7e-5,-0.008 -7e-5,-0.0169 0,-0.0253 -9e-5,-0.82835 0.6713,-1.49997 1.49965,-1.50016 0.82856,-10e-5 1.50026,0.67161 1.50017,1.50016 -1.9e-4,0.82836 -0.67181,1.49975 -1.50017,1.49965 -0.81836,-7e-5 -1.48564,-0.65608 -1.49965,-1.47433 z m 0.92553,14.76138 v -5.00022 h 9.99991 v 5.00022 z m 4.485,-34.63872 c -2e-5,-0.007 -2e-5,-0.0134 0,-0.0202 1.6e-4,-2.76139 2.23882,-4.99981 5.00021,-4.99969 2.76138,-1.2e-4 5.00004,2.2383 5.00021,4.99969 1.2e-4,2.76159 -2.23862,5.00033 -5.00021,5.00021 -2.75374,1.4e-4 -4.98923,-2.22635 -5.00021,-4.98005 z m 12.15429,19.90111 v -5.3e-4 c -7e-5,-0.008 -7e-5,-0.0169 0,-0.0253 -9e-5,-0.82855 0.67161,-1.50026 1.50017,-1.50016 0.82835,1.9e-4 1.49974,0.67181 1.49965,1.50016 9e-5,0.82836 -0.6713,1.49998 -1.49965,1.50017 -0.81857,2.1e-4 -1.48616,-0.65588 -1.50017,-1.47434 z"
       sodipodi:nodetypes="ccccccccccccccccccccccccccsccccccsccscssscccss" />
    <path
       d="m 351.43604,6.631018 h 0.0103 v 4.49998 0.4992 h 0.0104 v 4.5005 h 0.0103 c 0.20224,0.96291 0.37709,1.93286 0.51987,2.91195 -0.1367,0.84512 -0.31443,1.70192 -0.54054,2.57142 h -0.008 v 4.9997 h 0.0103 v 4.49946 0.49972 h 0.0103 v 4.49998 h 15.00011 v -4.99298 h 23.81302 v 0.493 h 0.0104 v 4.49998 h 15.00064 v -4.99298 h 0.008 c -0.007,-0.0225 -0.0122,-0.0452 -0.0186,-0.0677 v -4.43229 h 0.008 c -0.003,-0.0102 -0.005,-0.0204 -0.008,-0.0305 v -0.46922 h 0.008 c -0.007,-0.0225 -0.0117,-0.0452 -0.0181,-0.0677 v -4.43229 h 0.008 c -0.23668,-0.82468 -0.42653,-1.65307 -0.57465,-2.48512 0.15543,-1.00128 0.35428,-2.00638 0.59532,-3.01479 h -0.0109 v -4.49792 c 1.7e-4,-7.9e-4 2.6e-4,-5.3e-4 5.3e-4,-0.002 h -5.3e-4 v -0.4904 h -0.002 c 7.9e-4,-0.003 10e-4,-0.007 0.002,-0.01 h -0.0109 v -4.49017 -0.008 c 1.6e-4,-8e-4 2.5e-4,-5.3e-4 5.3e-4,-0.002 h -5.3e-4 v -0.49041 h -0.0104 v -4.49999 h -15.00022 v 4.99046 h -23.81215 v -0.4899 h -0.0103 v -4.49998 h -8.55814 v -5.3e-4 h -6.43165 v 5.3e-4 h -0.0103 z"
       style="fill:#00ffff;stroke-width:0.264583"
       id="rect1285-8-2-2" />
    <path
       sodipodi:nodetypes="ccccccccccccccccccccccccccccccccccccccccccccccccccccc"
       d="m 226.69436,111.62848 h -4.99971 v 0.0109 h -0.015 V 87.195347 h 0.006 v 0.0139 h 5.00021 v -9.99997 c -1.67996,0.0208 -3.34452,-0.015 -5.00641,-0.015 v -3.63804 c -1.48285,2.17243 -12.65268,4.46521 -19.07325,5.3e-4 v 1.58751 h -0.003 v -0.003 h -4.9997 v 10.00047 h 1.23456 v 0.003 h 3.76772 v 17.033673 h -4.99969 v 9.99993 h 1.23351 v 0.008 h 3.76721 v 1.05833 0.79375 c 12.95409,5.31664 18.57705,14.77242 19.07328,16.44419 l -4.3e-4,-8.84678 c 1.6682,-0.007 3.33776,-0.007 5.01468,-0.007 z m -7.84965,-17.447013 -0.68937,2.22676 -2.27272,0.516241 -1.58337,-1.709981 0.68885,-2.22623 2.27272,-0.51677 z m -3.82509,5.406906 -1.28106,4.138777 -4.22456,0.96016 -2.944,-3.17863 1.28106,-4.138765 4.22455,-0.960158 z m -1.88671,-8.123036 -0.9803,3.40602 -3.4401,0.8537 -2.45928,-2.55233 0.98082,-3.406 3.4401,-0.8532 z"
       style="fill:#00ff00;fill-opacity:1;stroke:none;stroke-width:0.264999;stroke-miterlimit:4;stroke-dasharray:none;stroke-opacity:1"
       id="path611-6-4-2-4" />
    <g
       id="g2919"
       transform="rotate(178.90795,-23.182831,127.17441)">
      <path
         d="m -38.3589,-45.202921 c -1.29236,-0.0104 -2.607101,0.293137 -3.832839,0.944644 l -7.91528,4.206979 c -3.922379,2.084821 -5.401929,6.920886 -3.31711,10.843265 l 38.987284,73.350561 V 159.69929 l 33.158182,18.18029 V 59.707986 C 7.0325771,23.81138 -15.510279,-11.143829 -31.348474,-40.941682 c -1.433311,-2.696636 -4.167235,-4.23835 -7.010426,-4.261239 z M 0.93844313,51.705375 A 1.5,1.5 0 0 1 2.4380941,53.205541 1.5,1.5 0 0 1 0.93844313,54.705707 1.5,1.5 0 0 1 -0.56172284,53.205541 1.5,1.5 0 0 1 0.93844313,51.705375 Z M 12.424564,165.32583 a 1.5,1.5 0 0 1 1.49965,1.50016 1.5,1.5 0 0 1 -1.49965,1.50017 1.5,1.5 0 0 1 -1.500167,-1.50017 1.5,1.5 0 0 1 1.500167,-1.50016 z"
         style="fill:#800000;stroke-width:0.224802;stroke-linejoin:round"
         id="rect1450" />
      <path
         id="path3252"
         style="fill:#ffff00;fill-opacity:1;stroke:#ff0000;stroke-width:0.00137855;stroke-linejoin:round"
         d="m 11.867537,67.931344 c 0,-1.866963 -0.596704,-3.143371 -1.730027,-3.699875 -1.1237985,-0.551961 -3.2576135,-0.532767 -4.4261701,0.03946 -0.6889486,0.33739 -1.0566571,0.717736 -1.905334,1.971762 -1.0918821,1.613347 -1.6241311,2.281622 -1.936366,2.430737 -0.4531084,0.216434 -1.91113393,0.252245 -2.28918301,0.05638 -0.51557303,-0.267136 -0.51557303,-1.112139 0,-1.254986 0.11192455,-0.03112 0.76205979,-0.05927 1.44472501,-0.06454 l 1.2410977,-0.0086 V 65.692851 63.983796 H 1.16756 c -0.60432243,0 -1.09871962,0.02874 -1.09871962,0.0637 0,0.03495 -0.19620203,0.06625 -0.43583537,0.06998 -0.56661563,0.0085 -1.23690661,0.314183 -1.67366911,0.764153 -0.4099997,0.422391 -0.8650302,1.324526 -1.0249454,2.031921 l 2.808e-4,5.27e-4 c -0.1550583,0.685615 -0.1085397,2.378121 0.082743,3.01112 0.20338,0.672952 0.6459516,1.411328 1.0693207,1.783927 0.5428286,0.477746 0.9833674,0.592188 2.44815332,0.636741 2.89417028,0.08808 3.63371978,-0.355709 5.48297588,-3.290707 0.3612456,-0.573334 0.7717131,-1.162017 0.9119663,-1.308333 0.3240048,-0.338079 0.7400852,-0.449154 1.5476221,-0.412433 0.5838784,0.02653 0.6591077,0.04975 0.8371105,0.25672 0.2197845,0.255528 0.2527562,0.597085 0.080279,0.833291 -0.1015589,0.139012 -0.2378656,0.16119 -1.1395526,0.184842 l -1.024129,0.02721 v 1.74962 1.749893 l 0.9155122,-0.05281 c 2.0590693,-0.118728 2.6083873,-0.398401 3.2041293,-1.631471 0.359085,-0.743129 0.516695,-1.512206 0.516695,-2.520304 z m 0,88.791446 c 0,-1.85907 -0.60275,-3.14623 -1.733565,-3.70151 -1.1201415,-0.55016 -3.2559883,-0.53044 -4.4226321,0.0408 -0.7300505,0.35754 -1.0372676,0.69361 -2.2132226,2.42013 -1.4108104,2.07138 -1.5534609,2.17647 -2.95668512,2.17619 -0.86161192,0 -1.21345901,-0.15418 -1.31786619,-0.57631 -0.0910007,-0.3681 0.0701615,-0.73637 0.3568909,-0.81587 0.11192455,-0.0311 0.76205979,-0.0592 1.44472501,-0.0645 l 1.2410977,-0.008 v -1.70905 -1.70879 H 1.2048512 c -1.13402082,0 -2.09917139,0.15048 -2.5970641,0.40508 -0.7220645,0.36923 -1.4360843,1.45006 -1.6676814,2.52438 l 8.508e-4,0.002 c -0.1516148,0.70016 -0.1540298,1.93739 -0.00511,2.64472 0.1733263,0.82536 0.6117812,1.66269 1.1003525,2.10187 0.5992805,0.53879 0.9542827,0.63795 2.45333295,0.68493 2.96885485,0.093 3.68650605,-0.34646 5.63868975,-3.45323 0.3428586,-0.54565 0.7480879,-1.10185 0.9005276,-1.23565 0.321547,-0.28233 0.7551719,-0.37129 1.5579635,-0.32014 0.4647164,0.0296 0.5651946,0.0651 0.7312062,0.25808 0.2170041,0.25227 0.2490821,0.59459 0.077303,0.82974 -0.1015496,0.13915 -0.2378563,0.1612 -1.1395442,0.18486 l -1.0241281,0.027 v 1.75098 1.75097 l 0.9563406,-0.0571 c 1.1342373,-0.068 1.6384227,-0.152 2.0330047,-0.3392 0.985331,-0.46752 1.646981,-1.9985 1.646981,-3.8104 z m -0.03563,-18.87885 c -0.0745,-0.49396 -0.275455,-1.24651 -0.453806,-1.59608 -0.22652,-0.44368 -0.896905,-1.15297 -1.328752,-1.40552 -0.8225854,-0.48101 -0.8854834,-0.48742 -5.2039374,-0.5205 -2.4754703,-0.019 -4.23967514,0.002 -4.68016376,0.0552 -1.69799084,0.20564 -2.89299584,1.31836 -3.22945944,3.00705 h -5.273e-4 c -0.029255,0.14658 -0.05213,0.31977 -0.07297,0.46415 l 4.5892431,-0.002 1.3472661,-2.3333 h 3.583357 l 1.3461688,2.33138 z m 0,1.56804 -4.1155597,0.006 -1.3341944,2.30226 h -3.583357 l -1.3377327,-2.30362 -4.6053082,0.006 c 0.020663,0.13947 0.0455,0.2865 0.075174,0.42659 0.3615683,1.70571 1.5386122,2.79897 3.2343582,3.00431 0.44048769,0.0536 2.2046935,0.0742 4.6801629,0.0552 3.5373154,-0.0271 4.0221736,-0.0463 4.4207353,-0.17559 0.9286936,-0.301 1.7988356,-1.0641 2.1704806,-1.90316 0.168691,-0.3808 0.326794,-0.97106 0.395279,-1.41831 z m -0.16606,-44.390816 h -0.0034 l 0.0017,0.05876 z m -0.0034,0 -0.04107,-1.946988 H 7.9840793 c -0.2980324,1.162272 -1.3480565,2.002998 -2.5799193,2.003065 -1.2311738,3.5e-5 -2.280373,-0.840044 -2.5788304,-2.001976 -2.809e-4,0 -8.509e-4,-0.0017 -8.509e-4,-0.0017 -1.0910395,-0.01709 -2.20358782,0.01268 -3.14343004,-0.0051 h -0.003441 C -1.1065296,93.196066 -2.0790116,93.220542 -2.924644,93.277554 l -0.00679,3.87872 z m -5.28e-4,-5.545857 -14.5857791,-1.888188 -0.00511,3.937262 2.61149615,0.21669 v 0.03104 c 0.001674,0 0.003441,1.19e-4 0.005114,-0.0017 v -0.0136 H 2.8133291 c 0.00344,-0.0034 0.00763,-0.006 0.01114,-0.0086 0.2969361,-1.162671 1.34679,-2.005786 2.5804633,-2.005786 1.2277303,4.3e-5 2.2846767,0.83638 2.5829137,2.006867 0.00251,0.0017 0.010461,0.0068 0.012842,0.0085 l 3.6418709,0.0076 c 0.0085,-0.717523 0.01403,-1.538433 0.02015,-2.289991 z m -0.0034,3.601872 c 0.01225,-0.006 -0.0381,-0.03537 -0.03844,-0.05009 l 8.51e-4,0.04635 c 0.0222,0.0051 0.03317,0.006 0.03734,0.0034 z m -0.01003,4.759379 H 4.3932254 -2.8619589 v 1.878384 0.728218 l 14.5024719,-0.0362 c 0.0092,-0.24268 -0.0034,-0.491299 0.0025,-0.774502 z m -0.02016,9.928212 H 4.3834066 -2.8617079 v 1.62766 1.62739 H 1.913193 c 2.6262334,0 4.7593798,0.0158 4.7400582,0.0352 -0.019221,0.0192 -2.0857017,0.33101 -4.5919649,0.69282 -2.5062633,0.36185 -4.6390275,0.67621 -4.7397867,0.69882 -0.1794404,0.0403 -0.1832075,0.0656 -0.1832075,1.17903 0,0.62573 0.027386,1.13763 0.060974,1.13765 0.2343859,4e-5 9.6485021,1.29869 9.6859123,1.3361 0.026028,0.0261 -2.1563718,0.0471 -4.849764,0.0471 h -4.8971325 v 1.62766 1.62739 h 7.243754 7.2440131 v -2.43101 -2.431 l -0.223764,-0.0424 c -0.123109,-0.0233 -1.6339457,-0.21703 -3.3574028,-0.43067 -1.7234702,-0.21363 -3.1609318,-0.4112 -3.1943368,-0.43938 -0.033421,-0.0282 1.4682303,-0.26924 3.336979,-0.53575 l 3.3976956,-0.48456 0.02177,-2.42094 z m -0.0025,-34.850817 -0.264602,0.04005 c -0.145483,0.02185 -3.4051879,0.402015 -7.2437505,0.844732 l -6.9791433,0.804709 v 2.322655 l -2.808e-4,2.322938 3.39823568,0.466332 c 1.86896172,0.256541 3.57103482,0.48875 3.78262952,0.51587 0.2116376,0.02713 0.3682609,0.07628 0.3479099,0.10917 -0.020328,0.03308 -0.3033217,0.08514 -0.6288487,0.115964 -0.9535602,0.09006 -3.90927551,0.516329 -5.4002206,0.778848 -0.7576474,0.13339 -1.4048999,0.243188 -1.4384575,0.243648 -0.033588,0 -0.061234,1.055203 -0.061234,2.343899 v 2.343075 l 6.9385864,0.796266 c 3.8162382,0.437894 7.0760869,0.816232 7.2440209,0.84092 l 0.305168,0.0449 v -1.796981 -1.796989 l -0.264611,-0.04413 C 10.021303,83.986594 6.3749765,83.580353 4.0564103,83.39587 3.1834889,83.326387 2.2010141,83.247929 1.8731317,83.221642 c -0.3278834,-0.02645 -0.5815146,-0.06284 -0.5632475,-0.08113 0.018198,-0.0182 1.2571283,-0.124894 2.7530578,-0.237117 3.1599879,-0.236862 6.521872,-0.511235 7.135405,-0.582568 l 0.4274,-0.04958 V 80.346032 78.421104 L 9.8554353,78.200324 C 6.3853087,77.767261 2.9294996,77.419317 1.9564309,77.405412 1.2191606,77.394783 1.8660625,77.264828 3.1202161,77.17157 6.131099,76.94766 10.653716,76.597283 11.116944,76.552245 l 0.508803,-0.04924 v -1.794529 z m 0,51.288837 H 4.3819838 -2.8620333 v 1.87186 l 0.00763,0.88039 14.4801473,0.0112 v -0.94518 z m 0,19.62095 H 10.201428 8.7771301 v 1.09844 1.09873 h -5.819724 -5.8194394 v 1.87156 1.87186 h 5.8194394 5.819724 v 1.09844 1.09873 h 1.4242979 1.424306 v -4.06903 z m -0.05502,-15.2748 -2.4231089,-0.0226 c -0.048392,0.2194 -0.1658757,0.39871 -0.3160612,0.51044 -0.2083383,0.15573 -0.3360471,0.17164 -1.3513438,0.16796 -1.3592991,-0.005 -1.5066197,-0.0627 -1.5898166,-0.66696 l -2.2848208,-0.0114 c -0.086686,0.63741 -0.1968399,0.68166 -1.991091,0.68166 -1.70578994,0 -1.89328339,-0.0512 -1.99299639,-0.54637 -0.009866,-0.0488 -0.001674,-0.0908 -0.009522,-0.13149 l -2.47183801,-0.007 0.019305,1.03121 c 0.052977,1.74977 0.154174,2.15352 0.6680537,2.6673 0.5527107,0.55254 0.8991671,0.63018 2.98526761,0.66969 1.43970729,0.0273 1.85659579,0.009 2.27883409,-0.0986 0.9176546,-0.23441 1.2878041,-0.59582 1.6644072,-1.62494 0.1004783,-0.27466 0.1983882,-0.44027 0.219964,-0.37241 0.3273979,1.02774 0.5502353,1.36536 1.0742184,1.62739 0.3787298,0.1889 0.4884523,0.20275 1.5870947,0.20118 0.9900647,-0.002 1.2752393,-0.0319 1.7700352,-0.18542 0.7177268,-0.2227 1.3305628,-0.69562 1.6548828,-1.27702 0.265563,-0.47603 0.465456,-1.42993 0.500077,-2.38936 z m -0.02671,-26.54998 -2.3907155,-0.005 -0.093649,0.25698 c -0.224062,0.48226 -0.5317301,0.57528 -1.7504245,0.52867 -0.5162184,-0.0196 -1.0195864,-0.0792 -1.1185936,-0.13231 -0.113949,-0.0609 -0.2137299,-0.22979 -0.2716863,-0.4598 l -0.06183,-0.19354 -2.2020571,0.008 -0.070496,0.18945 c -0.073565,0.27522 -0.1549904,0.39267 -0.3220398,0.46471 -0.1540977,0.0664 -1.1408156,0.10576 -3.17419884,0.12632 l -2.95042596,0.0294 v 1.70879 1.70906 l 2.90958816,-0.0266 c 2.84805904,-0.0261 2.91792194,-0.0304 3.29125174,-0.21425 0.6331524,-0.31182 0.9302754,-0.71705 1.2642385,-1.72457 0.022197,-0.0671 0.1110579,0.1304 0.1973672,0.4391 0.086388,0.30871 0.2319718,0.66673 0.323682,0.79546 0.3778966,0.53063 1.3765118,0.76795 2.9202012,0.69418 2.5714788,-0.12279 3.4997728,-1.14962 3.4997728,-3.8708 z M 7.9944143,93.025447 c -0.0097,0.01658 -0.019305,0.03367 -0.026958,0.04737 h 0.016329 c 0.00428,-0.01557 0.00679,-0.03164 0.010629,-0.04737 z" />
    </g>
    <g
       id="g2851"
       transform="rotate(-27.172339,342.42787,474.95042)">
      <path
         transform="scale(0.26458333)"
         d="m 758.18555,-170.8457 c -10.74592,0.0865 -21.0789,5.91346 -26.4961,16.10547 -59.86087,112.621804 -145.06029,244.735972 -189.23828,380.4082 v 446.63281 l 125.32031,-68.71289 v -436.75 L 815.125,-110.39258 c 7.87963,-14.82474 2.28763,-33.10278 -12.53711,-40.98242 l -29.91601,-15.90039 c -4.63272,-2.46239 -9.60182,-3.60962 -14.48633,-3.57031 z M 609.53906,197.28906 a 5.6692913,5.6692913 0 0 1 5.66992,5.66992 5.6692913,5.6692913 0 0 1 -5.66992,5.66993 5.6692913,5.6692913 0 0 1 -5.66992,-5.66993 5.6692913,5.6692913 0 0 1 5.66992,-5.66992 z m -43.44531,429.39649 a 5.6692912,5.6692912 0 0 1 0.0977,0 5.6692912,5.6692912 0 0 1 5.66797,5.66992 5.6692912,5.6692912 0 0 1 -5.66797,5.66992 5.6692912,5.6692912 0 0 1 -5.66993,-5.66992 5.6692912,5.6692912 0 0 1 5.57227,-5.66992 z"
         style="fill:#800000;stroke-width:0.849645;stroke-linejoin:round"
         id="rect1450-7" />
      <path
         d="m 149.3395,156.81716 c 0,1.86696 0.5967,3.14337 1.73003,3.69988 1.12379,0.55196 3.25761,0.53276 4.42617,-0.0395 0.68894,-0.33739 1.05665,-0.71774 1.90533,-1.97177 1.09188,-1.61334 1.62413,-2.28162 1.93637,-2.43073 0.4531,-0.21644 1.91113,-0.25225 2.28918,-0.0564 0.51557,0.26713 0.51557,1.11214 0,1.25498 -0.11193,0.0311 -0.76206,0.0593 -1.44473,0.0645 l -1.24109,0.009 v 1.70883 1.70906 h 1.09872 c 0.60432,0 1.09872,-0.0287 1.09872,-0.0637 0,-0.035 0.1962,-0.0663 0.43583,-0.07 0.56662,-0.008 1.23691,-0.31418 1.67367,-0.76415 0.41,-0.42239 0.86503,-1.32453 1.02495,-2.03192 l -2.9e-4,-5.3e-4 c 0.15506,-0.68562 0.10854,-2.37813 -0.0827,-3.01112 -0.20338,-0.67296 -0.64595,-1.41133 -1.06932,-1.78393 -0.54283,-0.47775 -0.98337,-0.59219 -2.44815,-0.63674 -2.89417,-0.0881 -3.63372,0.35571 -5.48298,3.29071 -0.36124,0.57333 -0.77171,1.16201 -0.91196,1.30833 -0.32401,0.33808 -0.74009,0.44915 -1.54763,0.41243 -0.58388,-0.0265 -0.6591,-0.0498 -0.83711,-0.25672 -0.21978,-0.25553 -0.25275,-0.59708 -0.0803,-0.83329 0.10156,-0.13901 0.23787,-0.16119 1.13956,-0.18484 l 1.02413,-0.0272 v -1.74962 -1.7499 l -0.91552,0.0528 c -2.05907,0.11873 -2.60838,0.39841 -3.20413,1.63148 -0.35908,0.74312 -0.51669,1.5122 -0.51669,2.5203 z m 0,-88.791447 c 0,1.85907 0.60275,3.14623 1.73356,3.70151 1.12015,0.55016 3.25599,0.53044 4.42264,-0.0408 0.73005,-0.35754 1.03726,-0.69361 2.21322,-2.42013 1.41081,-2.07138 1.55346,-2.17647 2.95668,-2.17619 0.86162,0 1.21346,0.15418 1.31787,0.57631 0.091,0.3681 -0.0702,0.73637 -0.35689,0.81587 -0.11193,0.0311 -0.76206,0.0592 -1.44473,0.0645 l -1.24109,0.008 v 1.70905 1.70879 h 1.06142 c 1.13403,0 2.09918,-0.15048 2.59707,-0.40508 0.72206,-0.36923 1.43608,-1.45006 1.66768,-2.52438 l -8.5e-4,-0.002 c 0.15161,-0.70016 0.15403,-1.93739 0.005,-2.64472 -0.17333,-0.82536 -0.61178,-1.66269 -1.10035,-2.10187 -0.59928,-0.53879 -0.95429,-0.63795 -2.45334,-0.68493 -2.96885,-0.093 -3.6865,0.34646 -5.63869,3.45323 -0.34285,0.54565 -0.74808,1.10185 -0.90052,1.23565 -0.32155,0.28233 -0.75518,0.37129 -1.55797,0.32014 -0.46471,-0.0296 -0.56519,-0.0651 -0.7312,-0.25808 -0.21701,-0.25227 -0.24909,-0.59459 -0.0773,-0.82974 0.10155,-0.13915 0.23785,-0.1612 1.13954,-0.18486 l 1.02413,-0.027 v -1.75098 -1.75097 l -0.95634,0.0571 c -1.13424,0.068 -1.63842,0.152 -2.03301,0.3392 -0.98533,0.46752 -1.64698,1.9985 -1.64698,3.8104 z m 0.0356,18.87885 c 0.0745,0.49396 0.27545,1.24652 0.4538,1.59609 0.22653,0.44367 0.89691,1.15296 1.32876,1.40551 0.82258,0.48101 0.88548,0.48742 5.20393,0.5205 2.47547,0.019 4.23968,-0.002 4.68017,-0.0552 1.69799,-0.20564 2.89299,-1.31836 3.22946,-3.00705 h 5.2e-4 c 0.0293,-0.14658 0.0521,-0.31977 0.073,-0.46414 l -4.58924,0.002 -1.34726,2.3333 h -3.58336 l -1.34617,-2.33138 z m 0,-1.56804 4.11556,-0.006 1.33419,-2.30226 h 3.58336 l 1.33773,2.30362 4.60531,-0.006 c -0.0207,-0.13947 -0.0455,-0.28649 -0.0752,-0.42659 -0.36157,-1.7057 -1.53862,-2.79896 -3.23436,-3.00431 -0.44049,-0.0536 -2.20469,-0.0742 -4.68016,-0.0552 -3.53732,0.0271 -4.02218,0.0463 -4.42074,0.1756 -0.92869,0.301 -1.79884,1.06409 -2.17048,1.90315 -0.16869,0.38081 -0.32679,0.97106 -0.39528,1.41832 z m 0.16606,44.390817 h 0.003 l -0.002,-0.0588 z m 0.003,0 0.0411,1.94699 h 3.6373 c 0.29803,-1.16227 1.34805,-2.003 2.57992,-2.00307 1.23117,-3e-5 2.28037,0.84005 2.57883,2.00198 2.9e-4,0 8.4e-4,0.002 8.4e-4,0.002 1.09104,0.0171 2.20359,-0.0127 3.14343,0.005 h 0.003 c 0.78414,-0.12761 1.75662,-0.15208 2.60225,-0.2091 l 0.007,-3.87872 z m 5.3e-4,5.54586 14.58578,1.88819 0.005,-3.93727 -2.6115,-0.21669 v -0.031 c -0.002,0 -0.003,-1.2e-4 -0.005,0.002 v 0.0136 h -3.12569 c -0.003,0.003 -0.008,0.006 -0.0111,0.009 -0.29694,1.16267 -1.34679,2.00579 -2.58046,2.00579 -1.22774,-5e-5 -2.28468,-0.83638 -2.58292,-2.00687 -0.002,-0.002 -0.0105,-0.007 -0.0128,-0.008 l -3.64187,-0.008 c -0.008,0.71752 -0.014,1.53843 -0.0202,2.28999 z m 0.003,-3.60187 c -0.0122,0.006 0.0381,0.0354 0.0384,0.0501 l -8.5e-4,-0.0463 c -0.0222,-0.005 -0.0332,-0.006 -0.0373,-0.003 z m 0.01,-4.75938 h 7.25526 7.25518 v -1.87839 -0.72821 l -14.50247,0.0362 c -0.009,0.24267 0.003,0.49129 -0.002,0.7745 z m 0.0202,-9.92822 h 7.24492 7.24511 v -1.62766 -1.62739 h -4.7749 c -2.62623,0 -4.75938,-0.0158 -4.74006,-0.0352 0.0192,-0.0192 2.08571,-0.33101 4.59197,-0.69282 2.50626,-0.36184 4.63903,-0.67621 4.73979,-0.69882 0.17944,-0.0403 0.1832,-0.0656 0.1832,-1.17903 0,-0.62573 -0.0274,-1.13763 -0.061,-1.13765 -0.23439,-4e-5 -9.6485,-1.29869 -9.68591,-1.33609 -0.026,-0.0261 2.15637,-0.0471 4.84976,-0.0471 h 4.89713 v -1.62767 -1.62738 h -7.24375 -7.24401 v 2.43101 2.431 l 0.22376,0.0424 c 0.12311,0.0233 1.63395,0.21703 3.3574,0.43067 1.72347,0.21363 3.16094,0.4112 3.19434,0.43938 0.0334,0.0282 -1.46823,0.26924 -3.33698,0.53575 l -3.39769,0.48456 -0.0218,2.42094 z m 0.002,34.85082 0.2646,-0.0401 c 0.14547,-0.0218 3.40518,-0.40201 7.24374,-0.84473 l 6.97915,-0.80471 v -2.32265 l 2.8e-4,-2.32294 -3.39823,-0.46633 c -1.86896,-0.25655 -3.57104,-0.48875 -3.78263,-0.51587 -0.21164,-0.0271 -0.36826,-0.0763 -0.34791,-0.10917 0.0203,-0.0331 0.30332,-0.0851 0.62885,-0.11597 0.95356,-0.0901 3.90927,-0.51633 5.40022,-0.77885 0.75764,-0.13339 1.4049,-0.24318 1.43846,-0.24364 0.0336,0 0.0612,-1.05521 0.0612,-2.3439 v -2.34308 l -6.93859,-0.79626 c -3.81624,-0.4379 -7.07608,-0.81624 -7.24402,-0.84092 l -0.30517,-0.0449 v 1.79698 1.79699 l 0.26462,0.0441 c 1.33992,0.22323 4.98625,0.62947 7.30482,0.81395 0.87292,0.0695 1.85539,0.14795 2.18327,0.17423 0.32789,0.0265 0.58152,0.0628 0.56325,0.0811 -0.0182,0.0182 -1.25713,0.1249 -2.75306,0.23712 -3.15998,0.23686 -6.52187,0.51123 -7.1354,0.58257 l -0.4274,0.0496 v 1.92521 1.92493 l 1.77031,0.22078 c 3.47013,0.43306 6.92594,0.78101 7.89901,0.79491 0.73727,0.0106 0.0904,0.14059 -1.16379,0.23384 -3.01088,0.22391 -7.5335,0.57429 -7.99673,0.61933 l -0.5088,0.0492 v 1.79453 z m 0,-51.28884 h 7.24384 7.24402 v -1.871857 l -0.008,-0.88038 -14.48015,-0.0112 v 0.94518 z m 0,-19.620947 h 1.4244 1.4243 v -1.09844 -1.09873 h 5.81972 5.81944 v -1.87156 -1.87186 h -5.81944 -5.81972 v -1.09844 -1.09873 h -1.4243 -1.42431 v 4.06903 z m 0.055,15.27481 2.42311,0.0226 c 0.0484,-0.2194 0.16587,-0.39871 0.31606,-0.51044 0.20834,-0.15573 0.33604,-0.17164 1.35134,-0.16796 1.3593,0.005 1.50662,0.0627 1.58982,0.66696 l 2.28482,0.0114 c 0.0867,-0.63741 0.19684,-0.68166 1.99109,-0.68166 1.70579,0 1.89328,0.0512 1.993,0.54637 0.01,0.0488 0.002,0.0908 0.01,0.13149 l 2.47183,0.007 -0.0193,-1.03121 c -0.053,-1.74977 -0.15417,-2.15352 -0.66805,-2.6673 -0.55272,-0.55254 -0.89917,-0.63018 -2.98527,-0.66969 -1.43971,-0.0273 -1.8566,-0.009 -2.27884,0.0986 -0.91765,0.23441 -1.2878,0.59581 -1.6644,1.62493 -0.10048,0.27467 -0.19839,0.44027 -0.21997,0.37242 -0.3274,-1.02775 -0.55023,-1.36537 -1.07422,-1.6274 -0.37873,-0.18889 -0.48845,-0.20275 -1.58709,-0.20118 -0.99006,0.002 -1.27524,0.0319 -1.77004,0.18542 -0.71772,0.22271 -1.33056,0.69562 -1.65488,1.27703 -0.26556,0.47603 -0.46545,1.42993 -0.50008,2.38935 z m 0.0267,26.549967 2.39071,0.005 0.0936,-0.25698 c 0.22407,-0.48226 0.53173,-0.57528 1.75043,-0.52867 0.51622,0.0196 1.01958,0.0792 1.11859,0.13231 0.11395,0.0609 0.21373,0.22979 0.27169,0.4598 l 0.0618,0.19354 2.20205,-0.008 0.0705,-0.18944 c 0.0736,-0.27522 0.15499,-0.39268 0.32204,-0.46472 0.1541,-0.0664 1.14082,-0.10576 3.1742,-0.12632 l 2.95043,-0.0294 v -1.70879 -1.70906 l -2.90959,0.0266 c -2.84806,0.0261 -2.91792,0.0304 -3.29125,0.21425 -0.63316,0.31182 -0.93028,0.71705 -1.26424,1.72457 -0.0222,0.0671 -0.11106,-0.1304 -0.19737,-0.4391 -0.0864,-0.30871 -0.23197,-0.66673 -0.32368,-0.79546 -0.3779,-0.53063 -1.37651,-0.76794 -2.9202,-0.69418 -2.57148,0.12279 -3.49978,1.14962 -3.49978,3.8708 z m 3.54969,8.97352 c 0.01,-0.0166 0.0193,-0.0337 0.027,-0.0474 h -0.0163 c -0.004,0.0156 -0.007,0.0316 -0.0106,0.0474 z"
         style="fill:#ffff00;fill-opacity:1;stroke:#ff0000;stroke-width:0.00137855;stroke-linejoin:round"
         id="path3252-5" />
    </g>
    <path
       id="path611-6-4"
       style="fill:#008080;fill-opacity:1;stroke:none;stroke-width:0.264999;stroke-miterlimit:4;stroke-dasharray:none;stroke-opacity:1"
       d="M 99.831136,9.2949619 4.2721112,62.137732 V 167.8243 l 51.2738708,28.35382 c 1.166863,0.70177 2.502734,1.07262 3.864364,1.07281 2.960582,-8e-5 5.644052,-1.74176 6.849711,-4.44572 0.0807,-0.0397 0.162147,-0.0783 0.239779,-0.12248 -0.0711,0.0209 -0.142185,0.0427 -0.213424,0.0631 0.368551,-0.84622 0.577699,-1.75317 0.617016,-2.67529 0.0254,-0.008 0.05088,-0.0131 0.07648,-0.0155 v -63.01425 c 0,-4.18326 3.367741,-7.55096 7.55096,-7.55096 h 50.638252 c 4.18324,0 7.55096,3.3677 7.55096,7.55096 v 63.14809 c 0.0233,0.0127 0.047,0.0284 0.0703,0.0455 0.30137,3.90648 3.55899,6.92272 7.47706,6.92309 1.28659,-3e-5 2.55147,-0.33104 3.67317,-0.96118 0.004,0.0238 0.0105,0.047 0.0145,0.0708 l 51.4351,-28.44271 -0.38189,-106.087578 z M 73.05344,26.340952 h 15.000119 v 5.00021 H 73.05344 Z m 38.82347,0 h 15.00012 v 4.99969 h -15.00012 z m 18.94251,4.36924 10.60659,10.6071 -3.5357,3.53519 -10.60659,-10.60659 z m -62.014815,0.12299 3.535701,3.5357 -10.607103,10.60659 -3.535185,-3.5357 z m 31.064253,20.96668 h 5.29e-4 c 0.523543,0.003 1.007523,0.2792 1.276923,0.72812 0.004,0.007 0.008,0.0148 0.0124,0.0222 0.41422,0.71736 0.1685,1.63467 -0.5488,2.04897 -0.717502,0.41412 -1.63485,0.16818 -2.048973,-0.54932 -0.4142,-0.71736 -0.168495,-1.63467 0.548804,-2.04897 0.230709,-0.13323 0.492726,-0.20261 0.759127,-0.20102 z m 58.402642,6.36292 10.60658,10.60659 -3.53518,3.53518 -10.60659,-10.60659 z m -116.918965,0.12299 3.5357,3.5357 -10.606587,10.60659 -3.535701,-3.5357 z M 19.6474,59.917712 a 1.5,1.5 0 0 1 1.500167,1.50017 1.5,1.5 0 0 1 -1.500167,1.50016 1.5,1.5 0 0 1 -1.500167,-1.50016 1.5,1.5 0 0 1 1.500167,-1.50017 z m 160.33543,0.31936 c 0.008,-7e-5 0.0169,-7e-5 0.0253,0 0.82836,-9e-5 1.49998,0.67129 1.50017,1.49965 9e-5,0.82856 -0.67161,1.50026 -1.50017,1.50017 -0.82836,-2e-4 -1.49974,-0.67181 -1.49965,-1.50017 7e-5,-0.81837 0.65608,-1.48564 1.47433,-1.49965 z m -80.098467,2.23346 c 0.542527,-0.007 1.046427,0.27994 1.317747,0.74982 0.41447,0.7176 0.16848,1.63536 -0.54932,2.04949 -0.717508,0.41412 -1.634853,0.16818 -2.048971,-0.54932 -0.414211,-0.71736 -0.168516,-1.63468 0.548804,-2.04897 0.222647,-0.12862 0.47462,-0.19784 0.73174,-0.20102 z m 79.053057,9.33276 h 5.3e-4 c 0.1687,0.001 0.34529,0.005 0.53071,0.0108 1.49789,0.0469 1.85269,0.14578 2.45153,0.68419 0.48818,0.43888 0.926,1.27587 1.09916,2.10065 0.14897,0.70683 0.14932,1.94313 -0.005,2.64273 v 0.003 c -0.23144,1.07359 -0.94473,2.15387 -1.66553,2.52285 -0.49753,0.25442 -1.46206,0.40463 -2.59519,0.40463 h -1.06092 v -1.70791 -1.70739 l 1.23972,-0.009 c 0.68218,-0.005 1.33198,-0.0335 1.44384,-0.0646 0.28652,-0.0795 0.44746,-0.44709 0.35657,-0.81494 -0.10432,-0.42184 -0.45579,-0.57619 -1.31672,-0.57619 -1.40216,-2.6e-4 -1.54461,0.10459 -2.95434,2.17454 -1.17507,1.72532 -1.48226,2.06115 -2.21175,2.41846 -1.16574,0.57088 -3.30008,0.59011 -4.41937,0.0403 -1.12996,-0.5549 -1.73219,-1.84121 -1.73219,-3.699 v -0.002 c 0,-1.81065 0.66133,-3.34085 1.64589,-3.80804 0.39431,-0.18707 0.89801,-0.27109 2.0314,-0.33899 l 0.9555,-0.0563 v 1.74976 1.74976 l -1.0232,0.0269 c -0.901,0.0236 -1.03746,0.0455 -1.13894,0.18449 -0.1717,0.235 -0.13915,0.5773 0.0775,0.8294 0.16589,0.19281 0.26637,0.22838 0.73071,0.25787 0.80219,0.051 1.2352,-0.0378 1.55649,-0.31988 0.15235,-0.1337 0.55709,-0.68979 0.89969,-1.23506 1.82876,-2.91057 2.57377,-3.47822 5.10408,-3.46129 z m -152.144719,0.16019 v 5.3e-4 c 0.819372,-0.007 1.633389,0.12573 2.194698,0.40153 1.132471,0.55611 1.728567,1.83177 1.728577,3.69745 -5e-5,1.00711 -0.157528,1.77578 -0.516248,2.51819 -0.595291,1.23222 -1.144391,1.51124 -3.201871,1.62987 l -0.914673,0.0532 v -1.74872 -1.74874 l 1.023193,-0.0269 c 0.900991,-0.0236 1.037489,-0.0461 1.138949,-0.185 0.17236,-0.23604 0.139553,-0.57714 -0.0801,-0.83251 -0.177876,-0.20683 -0.253221,-0.23033 -0.836641,-0.25683 -0.806921,-0.0367 -1.222906,0.0745 -1.546676,0.41238 -0.14015,0.14621 -0.550094,0.73449 -0.911055,1.30741 -1.847829,2.93299 -2.586784,3.37669 -5.478737,3.28869 -1.463659,-0.0445 -1.903953,-0.15923 -2.446362,-0.63665 -0.42304,-0.37233 -0.865451,-1.10985 -1.068669,-1.78232 -0.191162,-0.63258 -0.237545,-2.32397 -0.08268,-3.00912 v -5.3e-4 c 0.159797,-0.7069 0.614527,-1.60879 1.024227,-2.03088 0.436419,-0.44967 1.106081,-0.75525 1.672249,-0.76326 0.239472,-0.004 0.435633,-0.0353 0.435633,-0.0703 0,-0.035 0.493728,-0.0636 1.097607,-0.0636 h 1.098124 v 1.7079 1.70739 l -1.240235,0.009 c -0.682127,0.005 -1.33199,0.0335 -1.44384,0.0646 -0.515178,0.14273 -0.515178,0.98722 0,1.25419 0.377772,0.19576 1.835175,0.1599 2.287716,-0.0563 0.311999,-0.14903 0.843714,-0.81708 1.934767,-2.42931 0.84804,-1.25315 1.215339,-1.63326 1.903759,-1.97043 0.583829,-0.28589 1.408932,-0.43362 2.228288,-0.4408 z m 73.031715,4.07159 h 5.29e-4 c 0.003,-1e-5 0.0069,-1e-5 0.01035,0 0.745405,1.1e-4 1.349705,0.60437 1.349785,1.34979 -8e-5,0.74543 -0.60438,1.34967 -1.349785,1.34979 -0.745609,1.6e-4 -1.350195,-0.60416 -1.350306,-1.34979 1.11e-4,-0.74144 0.598141,-1.34401 1.339453,-1.34979 z m 68.516234,4.94905 h 1.42317 1.42316 v 1.09761 1.09813 h 5.81516 5.81514 v 1.87016 1.87069 h -5.81514 -5.81516 v 1.09761 1.09761 h -1.42316 -1.42317 v -4.06591 z m -137.866003,0.0579 v 1.79318 1.79317 l -0.508496,0.0496 c -0.46288,0.045 -4.981641,0.39482 -7.990211,0.61857 -1.253101,0.0932 -1.900326,0.22297 -1.163237,0.23357 0.97159,0.0139 4.425582,0.36202 7.89306,0.79479 l 1.768884,0.22066 v 1.92339 1.92391 l -0.426847,0.0496 c -0.613039,0.0713 -3.972725,0.3452 -7.130314,0.58188 -1.494791,0.11216 -2.73254,0.219 -2.750738,0.2372 -0.01831,0.0183 0.235106,0.0547 0.562756,0.0811 0.32762,0.0263 1.309531,0.10475 2.18178,0.17415 2.316742,0.18436 5.959998,0.59029 7.29878,0.81339 l 0.264583,0.0439 v 1.79575 1.79575 l -0.304891,-0.045 c -0.167791,-0.0247 -3.425011,-0.40266 -7.238318,-0.84025 l -6.933428,-0.79582 v -2.34146 c 0,-1.28781 0.02748,-2.34197 0.06098,-2.34197 0.0335,-5.3e-4 0.680579,-0.11063 1.437639,-0.24392 1.48979,-0.26231 4.443233,-0.68825 5.396054,-0.77824 0.325281,-0.0308 0.608076,-0.0827 0.628385,-0.11576 0.0204,-0.0329 -0.136303,-0.0819 -0.347782,-0.10904 -0.211431,-0.027 -1.912096,-0.25953 -3.779615,-0.51573 l -3.395659,-0.4656 0.001,-2.32183 v -2.32078 l 6.973736,-0.80409 c 3.835622,-0.44242 7.092431,-0.8225 7.237801,-0.84439 z m 57.759781,1.49914 c 0.009,-7e-5 0.01736,-7e-5 0.02582,0 0.26643,-1.5e-4 0.528106,0.0707 0.758095,0.20515 0.71543,0.41791 0.956519,1.33672 0.538467,2.05207 -0.41792,0.71543 -1.336728,0.95654 -2.052072,0.53847 -0.715425,-0.41791 -0.956527,-1.33672 -0.538466,-2.05207 0.263958,-0.45222 0.744608,-0.73406 1.268139,-0.74362 z m 23.184112,0.15348 h 5.3e-4 c 0.008,-7e-5 0.0169,-7e-5 0.0253,0 0.82856,-1e-4 1.50026,0.67161 1.50017,1.50016 -1.9e-4,0.82836 -0.67181,1.49974 -1.50017,1.49965 -0.82836,9e-5 -1.49996,-0.67129 -1.50017,-1.49965 -1.9e-4,-0.81856 0.65588,-1.48615 1.47433,-1.50016 z m -32.431093,5.17074 c 0.008,-7e-5 0.01693,-7e-5 0.02532,0 0.26643,-1.5e-4 0.528093,0.0707 0.758095,0.20516 0.714928,0.41807 0.955752,1.33645 0.537951,2.05155 -0.417719,0.71531 -1.336186,0.95662 -2.051556,0.53899 -0.707181,-0.41284 -0.952584,-1.31652 -0.551386,-2.03037 0.004,-0.007 0.009,-0.0148 0.01291,-0.0222 0.26417,-0.45217 0.745045,-0.73385 1.268656,-0.74311 z m 41.693573,0.12712 c 0.009,-7e-5 0.0173,-7e-5 0.0258,0 0.82856,-1e-4 1.50026,0.67161 1.50017,1.50017 9e-5,0.82856 -0.67161,1.50026 -1.50017,1.50017 -0.82855,9e-5 -1.50025,-0.67161 -1.50016,-1.50017 -2.1e-4,-0.81856 0.65588,-1.48615 1.47432,-1.50017 z m 56.14748,2.03089 c 1.55999,2.5e-4 2.63406,0.0219 2.96416,0.062 1.69444,0.20521 2.87069,1.29788 3.23185,3.0024 0.0297,0.13998 0.0547,0.28696 0.0754,0.42633 l -14.96497,0.0109 c 0.0684,-0.44694 0.22623,-1.03694 0.3948,-1.41748 0.37136,-0.83848 1.2409,-1.6009 2.16886,-1.90169 0.39828,-0.12918 0.88271,-0.14859 4.4173,-0.1757 0.61839,-0.005 1.19258,-0.007 1.71256,-0.007 z m -76.930702,3.86126 c 0.01,-5e-5 0.01932,-5e-5 0.02894,0 1.380592,-5e-5 2.499882,1.119 2.500102,2.49959 5e-5,1.38078 -1.11931,2.50017 -2.500102,2.50011 -1.380789,6e-5 -2.500151,-1.11933 -2.500106,-2.50011 1.29e-4,-1.36937 1.101891,-2.48379 2.471168,-2.49959 z m 83.195432,1.20303 c -0.0209,0.14428 -0.0437,0.31706 -0.0729,0.46354 -0.33623,1.68751 -1.53052,2.79948 -3.22719,3.00498 -0.44015,0.0532 -2.20314,0.0742 -4.67672,0.0553 -4.31518,-0.033 -4.37772,-0.0397 -5.19968,-0.52038 -0.43153,-0.25239 -1.10122,-0.96118 -1.32757,-1.40457 -0.17821,-0.3493 -0.37917,-1.10109 -0.45372,-1.59473 z m -167.156715,0.61753 14.574306,1.88671 0.0031,-5.3e-4 c -0.006,0.75103 -0.01258,1.57182 -0.02067,2.28875 l -3.639055,-0.008 c -0.003,-10e-4 -0.01004,-0.006 -0.01292,-0.008 -0.298,-1.16969 -1.35393,-2.00552 -2.580721,-2.00556 -1.232688,0 -2.281956,0.84266 -2.578655,2.00453 -0.004,0.003 -0.007,0.006 -0.01137,0.009 h -3.123322 v 0.0134 c -0.0021,0.002 -0.0032,0.002 -0.0052,0.002 v -0.031 l -2.60966,-0.21653 z M 178.24237,100.0295 c 0.24794,5.3e-4 0.54362,0.006 0.9033,0.0124 2.08446,0.0395 2.43095,0.11705 2.98328,0.66921 0.51347,0.51341 0.61477,0.91691 0.66766,2.66547 l 0.0191,1.03042 -2.47013,-0.007 c -0.008,-0.0405 -5.3e-4,-0.0825 -0.0103,-0.13125 -0.0996,-0.49477 -0.28714,-0.54622 -1.99161,-0.54622 -1.79288,0 -1.90366,0.0441 -1.98955,0.68109 l -2.28306,-0.0119 c -0.0831,-0.60393 -0.23027,-0.66264 -1.58853,-0.66662 -1.01451,-0.004 -1.14215,0.0123 -1.35031,0.16794 -0.15008,0.11163 -0.26745,0.2908 -0.31574,0.51005 l -2.42156,-0.0217 0.009,-0.22324 c 0.0346,-0.95876 0.23437,-1.91175 0.49971,-2.38746 0.32405,-0.58088 0.9365,-1.05384 1.65365,-1.2764 0.49443,-0.15337 0.77906,-0.18302 1.76836,-0.18501 1.09781,-0.002 1.20752,0.0122 1.58595,0.20103 0.52359,0.26183 0.74616,0.59871 1.07332,1.62574 0.0217,0.0678 0.11976,-0.0976 0.22014,-0.37207 0.37632,-1.0284 0.74595,-1.38842 1.66295,-1.62264 0.3164,-0.0806 0.62969,-0.11141 1.37356,-0.11007 z m -151.399543,1.10949 h 0.0031 v 5.3e-4 c -0.004,0.0153 -0.007,0.0318 -0.01085,0.047 h 3.634404 v -0.046 c 2.59e-4,0.0147 0.05044,0.0441 0.03824,0.0501 -0.004,0.002 -0.01511,-1.5e-4 -0.03721,-0.004 l 0.04031,1.94562 h 0.0026 l -0.0026,0.0589 -0.0031,-0.0589 -14.582574,2.13372 0.0067,-3.87625 c 0.844968,-0.0569 1.816303,-0.0813 2.599842,-0.20877 v 10e-4 h 0.0031 c 0.93912,0.0177 2.050854,-0.0119 3.140893,0.005 v 5.3e-4 c 0.29823,1.16112 1.346864,2.00094 2.577105,2.00091 1.230519,-8e-5 2.279412,-0.84002 2.57762,-2.00091 h -0.0155 c 0.007,-0.0135 0.01749,-0.0316 0.02739,-0.0481 z m -10.8443,4.80798 h 7.249688 7.249686 l -0.0052,1.79472 c -0.007,0.28299 0.0089,0.53112 -0.0031,0.7736 l -14.491623,0.0367 v -0.72812 z m 152.341603,0.015 14.4694,0.0119 0.008,0.87953 v 1.87069 h -7.23832 -7.23832 v -1.81694 z m -143.629472,4.14083 0.0615,0.19327 c 0.0579,0.22985 0.157968,0.39902 0.271818,0.45992 0.099,0.053 0.601962,0.11219 1.117761,0.13178 1.217769,0.0466 1.52485,-0.0462 1.74873,-0.52814 l 0.09353,-0.25683 2.389001,0.004 v 0.32504 c 0,2.71931 -0.927434,3.74528 -3.496944,3.86798 -1.54251,0.0737 -2.540546,-0.16326 -2.918168,-0.6935 -0.0916,-0.12864 -0.237347,-0.48628 -0.323495,-0.79478 -0.0862,-0.30848 -0.174668,-0.50636 -0.196887,-0.43925 -0.333672,1.00681 -0.63084,1.41182 -1.263489,1.72341 -0.373061,0.18371 -0.44282,0.18835 -3.288689,0.21446 l -2.907316,0.0258 v -1.7079 -1.70739 l 2.948141,-0.0294 c 2.031826,-0.0205 3.017938,-0.0597 3.171899,-0.12609 0.166951,-0.072 0.248466,-0.18956 0.321945,-0.46457 l 0.07028,-0.18913 z m 143.629472,3.41892 h 7.23832 7.23832 v 1.62626 1.62626 h -4.89324 c -2.69134,0 -4.87231,0.0204 -4.84622,0.0465 0.0374,0.0374 9.44427,1.33528 9.67848,1.33531 0.0335,0 0.0615,0.51157 0.0615,1.13689 0,1.11272 -0.004,1.13802 -0.18293,1.17822 -0.10066,0.0226 -2.23177,0.33657 -4.73615,0.69815 -2.50421,0.36155 -4.56915,0.6734 -4.58835,0.69246 -0.0193,0.0193 2.11193,0.0351 4.73615,0.0351 h 4.77128 v 1.62626 1.62626 h -7.23935 -7.23987 l 0.0217,-2.41898 0.0217,-2.41949 3.39515,-0.48421 c 1.86732,-0.26632 3.36705,-0.50725 3.33364,-0.53536 -0.0334,-0.0282 -1.46937,-0.22576 -3.19153,-0.43926 -1.72213,-0.21336 -3.23183,-0.40672 -3.35484,-0.42994 l -0.22376,-0.0424 v -2.42931 z m -152.341603,2.34714 h 7.239869 7.239352 l -0.0217,2.41846 -0.0217,2.41949 -3.395141,0.48421 c -1.86732,0.26632 -3.367554,0.50728 -3.334164,0.53537 0.0334,0.0282 1.469387,0.22627 3.191536,0.43976 1.722121,0.21349 3.231824,0.40674 3.354835,0.42995 l 0.223758,0.0429 v 2.42931 2.42931 h -7.238318 -7.238319 v -1.62625 -1.62678 h 4.893241 c 2.691311,0 4.872176,-0.0204 4.846217,-0.0465 -0.0374,-0.0374 -9.444271,-1.33532 -9.67848,-1.33532 -0.0335,0 -0.06098,-0.51157 -0.06098,-1.13688 0,-1.11271 0.004,-1.13816 0.182935,-1.17822 0.100657,-0.0226 2.232115,-0.33657 4.736145,-0.69815 2.504358,-0.36154 4.569656,-0.67328 4.588868,-0.69246 0.01929,-0.0193 -2.112421,-0.0351 -4.736663,-0.0351 h -4.771285 v -1.62626 z m 166.818753,10.8133 v 1.7079 1.70739 l -2.94814,0.03 c -2.03186,0.0205 -3.01792,0.0602 -3.1719,0.1266 -0.16693,0.072 -0.24793,0.18903 -0.32142,0.46406 l -0.0708,0.18965 -2.20038,0.009 -0.0615,-0.19327 c -0.0579,-0.22985 -0.15741,-0.39849 -0.2713,-0.4594 -0.099,-0.053 -0.60192,-0.11321 -1.11776,-0.13281 -1.21774,-0.0466 -1.52534,0.0468 -1.74925,0.52865 l -0.093,0.25683 -2.389,-0.004 v -0.32505 c 0,-2.7193 0.92742,-3.74525 3.49695,-3.86798 1.54253,-0.0737 2.54058,0.16324 2.91817,0.6935 0.0916,0.12864 0.23718,0.4868 0.32349,0.7953 0.0861,0.30847 0.17471,0.50582 0.19689,0.43873 0.33369,-1.00683 0.63085,-1.41183 1.26349,-1.72341 0.37305,-0.1837 0.44281,-0.18784 3.28868,-0.21394 z m -140.684947,3.1843 h 5.000209 v 15.00012 h -5.000209 z m 110.022737,0.0129 h 5.00021 v 15.00012 h -5.00021 z m -136.15706,2.41587 h 7.238319 7.238318 v 1.81695 0.94464 l -14.469402,-0.0114 -0.0083,-0.87951 z m 166.81876,0.17158 v 0.7276 1.87689 h -7.24969 -7.24969 l 0.005,-1.79421 c 0.007,-0.28296 -0.006,-0.53173 0.003,-0.77411 z m 0.0698,3.28455 -0.007,3.87625 c -0.84497,0.057 -1.81682,0.0813 -2.60036,0.20877 h -0.003 c -0.93912,-0.0177 -2.05065,0.0113 -3.1409,-0.005 v -0.002 c -0.29825,-1.16113 -1.34687,-2.00091 -2.5771,-2.00091 -1.23092,9e-5 -2.27933,0.84048 -2.5771,2.00194 h -3.63493 l -0.0408,-1.9451 v -5.3e-4 h -0.003 v -0.0589 l 0.003,0.0584 v 5.3e-4 z m -166.886969,0.86145 2.470133,0.007 c 0.008,0.0406 -4.9e-5,0.083 0.01033,0.13178 0.0996,0.49476 0.28714,0.5457 1.991609,0.5457 1.792871,0 1.902935,-0.0441 1.989544,-0.6811 l 2.283065,0.0114 c 0.0831,0.60392 0.230295,0.66261 1.588533,0.66663 1.014511,0.004 1.142154,-0.0123 1.350305,-0.16795 0.15009,-0.11166 0.267454,-0.29079 0.315743,-0.51005 l 2.421558,0.0227 -0.0088,0.22324 c -0.0346,0.95876 -0.234342,1.91175 -0.499711,2.38745 -0.324052,0.58099 -0.93599,1.05384 -1.653129,1.27641 -0.494441,0.15335 -0.779563,0.183 -1.768885,0.185 -1.09777,0.002 -1.207508,-0.0122 -1.58595,-0.20102 -0.523448,-0.26178 -0.74617,-0.59923 -1.073319,-1.62626 -0.0217,-0.0678 -0.119223,0.0976 -0.219625,0.37207 -0.376309,1.02842 -0.746524,1.38941 -1.663465,1.62368 -0.421915,0.1075 -0.838267,0.12601 -2.276864,0.0987 -2.084474,-0.0394 -2.43101,-0.11707 -2.98328,-0.66921 -0.513483,-0.51341 -0.614243,-0.91692 -0.667143,-2.66547 z M 168.3071,139.8276 c 0.004,-0.002 0.0153,-5.3e-4 0.0372,0.004 v 0.046 c -2.5e-4,-0.0145 -0.0476,-0.0431 -0.0372,-0.0496 z m 3.68453,0.005 h 0.002 0.0165 c -0.008,0.0136 -0.0175,0.0305 -0.0274,0.047 0.004,-0.0157 0.005,-0.0314 0.009,-0.047 z m 8.28218,1.29914 v 5.3e-4 0.031 l 2.60914,0.21652 -0.005,3.93464 -14.57483,-1.88722 c 0.006,-0.75089 0.012,-1.57137 0.0202,-2.28823 l 3.63905,0.008 c 0.003,10e-4 0.01,0.006 0.0129,0.008 0.298,1.1697 1.35445,2.00554 2.58124,2.00556 1.23275,0 2.28139,-0.8427 2.57813,-2.00453 0.004,-0.003 0.007,-0.006 0.0119,-0.009 h 3.12334 v -0.0139 c 0.003,-0.002 0.003,-10e-4 0.004,-10e-4 z m -158.287495,1.26918 h 5.29e-4 c 0.519878,-1e-4 1.093838,0.002 1.712042,0.007 4.315141,0.0331 4.378481,0.0392 5.199682,0.51987 0.431548,0.25237 1.101726,0.9617 1.328085,1.40508 0.178199,0.34932 0.378703,1.1006 0.453202,1.59422 l -14.958261,0.005 c 0.0208,-0.14427 0.04418,-0.31759 0.07338,-0.46405 h 5.29e-4 c 0.336211,-1.68753 1.530604,-2.7995 3.227194,-3.00499 0.330065,-0.0399 1.40407,-0.0616 2.963643,-0.062 z m 146.353855,2.65256 0.30489,0.0455 c 0.16782,0.0247 3.42497,0.4028 7.23832,0.84026 l 6.93343,0.79582 v 2.34094 c 0,1.28782 -0.0275,2.34249 -0.061,2.34249 -0.0335,5.3e-4 -0.68059,0.1101 -1.43764,0.2434 -1.48982,0.26234 -4.44321,0.68825 -5.39605,0.77825 -0.32528,0.0308 -0.60811,0.0827 -0.62839,0.11575 -0.0204,0.0329 0.13628,0.0819 0.34778,0.10904 0.21141,0.0271 1.91211,0.25934 3.77962,0.51573 l 3.39566,0.46612 v 2.3213 2.32079 l -6.97374,0.80409 c -3.83566,0.44237 -7.09299,0.82248 -7.23831,0.84439 l -0.26459,0.0403 v -1.79369 -1.79369 l 0.5085,-0.0491 c 0.46289,-0.045 4.98227,-0.39535 7.99072,-0.61909 1.25319,-0.0932 1.89943,-0.22296 1.16272,-0.23357 -0.9723,-0.0139 -4.42556,-0.36151 -7.89306,-0.79427 l -1.76888,-0.22066 v -1.92391 -1.92392 l 0.42685,-0.0491 c 0.61307,-0.0713 3.97272,-0.34567 7.13031,-0.58239 1.49479,-0.11212 2.73254,-0.21901 2.75074,-0.2372 0.0182,-0.0183 -0.23514,-0.0542 -0.56276,-0.0806 -0.32763,-0.0263 -1.30954,-0.10474 -2.18178,-0.17415 -2.3168,-0.18434 -5.96001,-0.58979 -7.29877,-0.81287 l -0.26459,-0.045 v -1.79576 z m -137.660328,2.44067 c -0.0684,0.44694 -0.226376,1.03695 -0.394808,1.41749 -0.371368,0.83849 -1.240859,1.60089 -2.168859,1.90169 -0.398241,0.12918 -0.882712,0.1486 -4.417302,0.1757 -2.473572,0.019 -4.236567,-0.002 -4.676718,-0.0553 -1.694378,-0.2052 -2.870545,-1.29789 -3.231844,-3.00241 -0.0297,-0.13999 -0.05371,-0.28646 -0.07441,-0.42581 z m -3.05201,4.40955 h 1.423169 1.423169 v 4.0659 4.06591 h -1.423209 -1.423169 v -1.09761 -1.09761 h -5.81515 -5.815149 v -1.87069 -1.87017 h 5.815149 5.81515 v -1.09812 z m 151.277068,8.63255 c 0.16471,7.9e-4 0.33705,0.004 0.5178,0.0103 1.46364,0.0445 1.90394,0.1587 2.44636,0.63613 0.42304,0.37234 0.86544,1.11037 1.06867,1.78284 0.19117,0.63257 0.23807,2.32397 0.0832,3.00912 v 5.3e-4 c -0.15981,0.7069 -0.61455,1.60825 -1.02423,2.03037 -0.43646,0.44963 -1.10659,0.75578 -1.67277,0.76378 -0.23945,0.004 -0.43511,0.0348 -0.43511,0.0698 0,0.035 -0.49426,0.0636 -1.09813,0.0636 h -1.0976 v -1.70791 -1.70738 l 1.23972,-0.009 c 0.68215,-0.005 1.332,-0.0335 1.44383,-0.0646 0.51521,-0.14274 0.51521,-0.98724 0,-1.25419 -0.37777,-0.19577 -1.83444,-0.15963 -2.28719,0.0563 -0.31204,0.149 -0.84424,0.81657 -1.93529,2.42879 -0.84804,1.25315 -1.21531,1.63324 -1.90375,1.97043 -1.16767,0.5718 -3.30002,0.59053 -4.42299,0.0393 -1.13232,-0.55613 -1.72858,-1.83126 -1.72858,-3.69693 0,-1.0074 0.15743,-1.77557 0.51625,-2.51819 0.59459,-1.23222 1.14436,-1.51184 3.20187,-1.6304 l 0.91467,-0.0527 v 1.74822 1.74873 l -1.02319,0.0279 c -0.901,0.0236 -1.03748,0.0456 -1.13895,0.18449 -0.17235,0.23604 -0.13947,0.57717 0.0801,0.8325 0.17785,0.20686 0.2527,0.23034 0.83613,0.25684 0.80695,0.0366 1.22294,-0.0745 1.54667,-0.41238 0.14019,-0.14621 0.55012,-0.73453 0.91106,-1.30741 1.73236,-2.74966 2.49006,-3.31105 4.96093,-3.29799 z M 26.789641,160.6949 h 5.29e-4 0.0031 c 0.818987,-0.008 1.632079,0.12516 2.191597,0.39998 1.129931,0.55476 1.732194,1.84121 1.732194,3.699 v 5.2e-4 c 0,1.81065 -0.661303,3.34032 -1.645894,3.80752 -0.39429,0.18707 -0.898032,0.2711 -2.031401,0.339 l -0.95551,0.0568 v -1.74977 -1.74976 l 1.023194,-0.0269 c 0.900969,-0.0236 1.037446,-0.0454 1.138948,-0.18448 0.171659,-0.23486 0.139088,-0.5773 -0.07751,-0.82941 -0.165901,-0.1928 -0.265846,-0.22836 -0.730187,-0.25787 -0.80217,-0.0511 -1.235733,0.0377 -1.557011,0.31988 -0.152321,0.1337 -0.557081,0.68983 -0.899687,1.23507 -1.950673,3.1046 -2.66772,3.54332 -5.634283,3.45043 -1.497908,-0.0468 -1.8527,-0.14576 -2.45153,-0.68419 -0.488189,-0.43888 -0.926494,-1.27588 -1.099674,-2.10065 -0.14895,-0.70682 -0.145602,-1.94305 0.0057,-2.64273 l -5.3e-4,-0.002 c 0.23141,-1.0736 0.945075,-2.15335 1.666565,-2.52233 0.49752,-0.25441 1.461525,-0.40514 2.594674,-0.40514 h 1.060917 v 1.70791 1.70842 l -1.240234,0.009 c -0.682149,0.005 -1.332,0.0335 -1.44384,0.0646 -0.28652,0.0795 -0.447468,0.4476 -0.356567,0.81545 0.104327,0.42185 0.455756,0.57568 1.316715,0.57568 1.402149,2.5e-4 1.545127,-0.10458 2.95486,-2.17455 1.175039,-1.72532 1.481725,-2.06115 2.211234,-2.41845 0.581988,-0.285 1.405646,-0.43284 2.223637,-0.4408 z m 15.342732,7.99486 h 4.999693 v 15.00012 h -4.999693 z m 110.022737,0.0129 h 4.9997 v 15.00012 h -4.9997 z m 45.62823,4.70153 c -0.0413,0.0766 -0.0845,0.15335 -0.1261,0.22996 0.0402,-0.0494 0.0804,-0.0988 0.12041,-0.14832 0.003,-0.027 0.003,-0.0548 0.006,-0.0816 z m -166.649778,0.0465 c 0.828355,1.9e-4 1.499741,0.67181 1.499651,1.50016 9e-5,0.82836 -0.671296,1.49998 -1.499651,1.50017 -0.828558,9e-5 -1.500259,-0.67161 -1.500167,-1.50017 -9.2e-5,-0.82855 0.671609,-1.50026 1.500167,-1.50016 z m 137.354408,0.48472 c 0.009,-7e-5 0.0172,-7e-5 0.0258,0 0.82835,1.9e-4 1.49974,0.67181 1.49965,1.50017 9e-5,0.82835 -0.6713,1.49997 -1.49965,1.50016 -0.82856,1e-4 -1.50027,-0.6716 -1.50017,-1.50016 -2.2e-4,-0.81857 0.65588,-1.48616 1.47433,-1.50017 z" />
  </g>
</svg>
